{
  "accessors": [
    {
      "bufferView": 2,
      "componentType": 5126,
      "count": 446,
      "max": [
        0.4626366198062897,
        -1.2236167192459106,
        0.24752743542194366
      ],
      "min": [
        -0.44932499527931213,
        -12.048336029052734,
        0.04264365881681442
      ],
      "type": "VEC3"
    },
    {
      "bufferView": 2,
      "byteOffset": 5352,
      "componentType": 5126,
      "count": 446,
      "max": [
        1.0,
        1.0,
        1.0
      ],
      "min": [
        -1.0,
        -0.2682293653488159,
        -1.0
      ],
      "type": "VEC3"
    },
    {
      "bufferView": 1,
      "componentType": 5126,
      "count": 446,
      "max": [
        0.9989989995956421,
        0.9989989995956421
      ],
      "min": [
        0.0010010009864345193,
        0.0010010009864345193
      ],
      "type": "VEC2"
    },
    {
      "bufferView": 1,
      "byteOffset": 3568,
      "componentType": 5126,
      "count": 446,
      "max": [
        0.5691767930984497,
        1.0
      ],
      "min": [
        0.125,
        0.0
      ],
      "type": "VEC2"
    },
    {
      "bufferView": 0,
      "componentType": 5125,
      "count": 666,
      "type": "SCALAR"
    },
    {
      "bufferView": 2,
      "byteOffset": 10704,
      "componentType": 5126,
      "count": 240,
      "max": [
        0.8441080451011658,
        -0.7230348587036133,
        0.8737464547157288
      ],
      "min": [
        -0.8405620455741882,
        -1.7508609294891357,
        -0.8109233975410461
      ],
      "type": "VEC3"
    },
    {
      "bufferView": 2,
      "byteOffset": 13584,
      "componentType": 5126,
      "count": 240,
      "max": [
        0.9701658487319946,
        1.0,
        0.9701658487319946
      ],
      "min": [
        -0.9701658487319946,
        -1.0,
        -0.9701658487319946
      ],
      "type": "VEC3"
    },
    {
      "bufferView": 1,
      "byteOffset": 7136,
      "componentType": 5126,
      "count": 240,
      "max": [
        0.9989989995956421,
        0.9989989995956421
      ],
      "min": [
        0.0010010009864345193,
        0.0010010009864345193
      ],
      "type": "VEC2"
    },
    {
      "bufferView": 1,
      "byteOffset": 9056,
      "componentType": 5126,
      "count": 240,
      "max": [
        0.5747804641723633,
        0.6050260066986084
      ],
      "min": [
        0.30888018012046814,
        0.0
      ],
      "type": "VEC2"
    },
    {
      "bufferView": 1,
      "byteOffset": 10976,
      "componentType": 5126,
      "count": 240,
      "max": [
        0.9989989995956421,
        0.9989989995956421
      ],
      "min": [
        0.0010010009864345193,
        0.0010010009864345193
      ],
      "type": "VEC2"
    },
    {
      "bufferView": 0,
      "byteOffset": 2664,
      "componentType": 5125,
      "count": 336,
      "type": "SCALAR"
    },
    {
      "bufferView": 2,
      "byteOffset": 16464,
      "componentType": 5126,
      "count": 168,
      "max": [
        0.8363304138183594,
        0.9217706918716431,
        0.8363304138183594
      ],
      "min": [
        -0.8363304138183594,
        -1.078229308128357,
        -0.8363303542137146
      ],
      "type": "VEC3"
    },
    {
      "bufferView": 2,
      "byteOffset": 18480,
      "componentType": 5126,
      "count": 168,
      "max": [
        0.794750988483429,
        0.7702721357345581,
        0.794750988483429
      ],
      "min": [
        -0.794750988483429,
        -0.6979401707649231,
        -0.794750988483429
      ],
      "type": "VEC3"
    },
    {
      "bufferView": 1,
      "byteOffset": 12896,
      "componentType": 5126,
      "count": 168,
      "max": [
        0.9989989995956421,
        0.9989989995956421
      ],
      "min": [
        0.0010010009864345193,
        0.0010010009864345193
      ],
      "type": "VEC2"
    },
    {
      "bufferView": 1,
      "byteOffset": 14240,
      "componentType": 5126,
      "count": 168,
      "max": [
        0.5865405797958374,
        0.5286303758621216
      ],
      "min": [
        0.2519180178642273,
        0.0
      ],
      "type": "VEC2"
    },
    {
      "bufferView": 1,
      "byteOffset": 15584,
      "componentType": 5126,
      "count": 168,
      "max": [
        0.9989989995956421,
        0.9535444378852844
      ],
      "min": [
        0.0010010009864345193,
        0.0010010009864345193
      ],
      "type": "VEC2"
    },
    {
      "bufferView": 0,
      "byteOffset": 4008,
      "componentType": 5125,
      "count": 276,
      "type": "SCALAR"
    }
  ],
  "asset": {
    "extras": {
      "author": "Ambriel (https://sketchfab.com/Ambriel)",
      "license": "CC-BY-4.0 (http://creativecommons.org/licenses/by/4.0/)",
      "source": "https://sketchfab.com/3d-models/dand-patta-4c5f4eff8ff94a10aa15242dda0b144e",
      "title": "Dand-patta"
    },
    "generator": "Sketchfab-12.66.0",
    "version": "2.0"
  },
  "bufferViews": [
    {
      "buffer": 0,
      "byteLength": 5112,
      "name": "floatBufferViews",
      "target": 34963
    },
    {
      "buffer": 0,
      "byteLength": 16928,
      "byteOffset": 5112,
      "byteStride": 8,
      "name": "floatBufferViews",
      "target": 34962
    },
    {
      "buffer": 0,
      "byteLength": 20496,
      "byteOffset": 22040,
      "byteStride": 12,
      "name": "floatBufferViews",
      "target": 34962
    }
  ],
  "buffers": [
    {
      "byteLength": 42536,
      "uri": "scene.bin"
    }
  ],
  "images": [
    {
      "uri": "textures/Rust_baseColor.png"
    },
    {
      "uri": "textures/Rough_baseColor.png"
    },
    {
      "uri": "textures/Rough_metallicRoughness.png"
    },
    {
      "uri": "textures/Rough.001_baseColor.png"
    }
  ],
  "materials": [
    {
      "doubleSided": true,
      "name": "Rust",
      "pbrMetallicRoughness": {
        "baseColorTexture": {
          "index": 0
        },
        "metallicFactor": 0.5
      }
    },
    {
      "doubleSided": true,
      "name": "Rough",
      "pbrMetallicRoughness": {
        "baseColorTexture": {
          "index": 1
        },
        "metallicFactor": 0.736364,
        "metallicRoughnessTexture": {
          "index": 2
        }
      }
    },
    {
      "doubleSided": true,
      "name": "Rough.001",
      "pbrMetallicRoughness": {
        "baseColorTexture": {
          "index": 3
        },
        "metallicFactor": 0.736364
      }
    }
  ],
  "meshes": [
    {
      "name": "Object_0",
      "primitives": [
        {
          "attributes": {
            "NORMAL": 1,
            "POSITION": 0,
            "TEXCOORD_0": 2,
            "TEXCOORD_1": 3
          },
          "indices": 4,
          "material": 0,
          "mode": 4
        }
      ]
    },
    {
      "name": "Object_1",
      "primitives": [
        {
          "attributes": {
            "NORMAL": 6,
            "POSITION": 5,
            "TEXCOORD_0": 7,
            "TEXCOORD_1": 8,
            "TEXCOORD_2": 9
          },
          "indices": 10,
          "material": 1,
          "mode": 4
        }
      ]
    },
    {
      "name": "Object_2",
      "primitives": [
        {
          "attributes": {
            "NORMAL": 12,
            "POSITION": 11,
            "TEXCOORD_0": 13,
            "TEXCOORD_1": 14,
            "TEXCOORD_2": 15
          },
          "indices": 16,
          "material": 2,
          "mode": 4
        }
      ]
    }
  ],
  "nodes": [
    {
      "children": [
        1
      ],
      "matrix": [
        1.0,
        0.0,
        0.0,
        0.0,
        0.0,
        2.220446049250313e-16,
        -1.0,
        0.0,
        0.0,
        1.0,
        2.220446049250313e-16,
        0.0,
        0.0,
        0.0,
        0.0,
        1.0
      ],
      "name": "Sketchfab_model"
    },
    {
      "children": [
        2
      ],
      "name": "root"
    },
    {
      "children": [
        3,
        5,
        7
      ],
      "matrix": [
        1.0,
        0.0,
        0.0,
        0.0,
        0.0,
        2.220446049250313e-16,
        1.0,
        0.0,
        0.0,
        -1.0,
        2.220446049250313e-16,
        0.0,
        0.0,
        0.0,
        0.0,
        1.0
      ],
      "name": "GLTF_SceneRootNode"
    },
    {
      "children": [
        4
      ],
      "matrix": [
        0.11841143667697906,
        0.0,
        0.0,
        0.0,
        0.0,
        0.0,
        0.25803104043006897,
        0.0,
        0.0,
        -0.11841143667697906,
        0.0,
        0.0,
        0.0,
        3.4922893047332764,
        1.4199997186660767,
        1.0
      ],
      "name": "Cylinder_1"
    },
    {
      "mesh": 0,
      "name": "Object_4"
    },
    {
      "children": [
        6
      ],
      "matrix": [
        0.11841143667697906,
        0.0,
        0.0,
        0.0,
        0.0,
        0.0,
        0.25803104043006897,
        0.0,
        0.0,
        -0.11841143667697906,
        0.0,
        0.0,
        0.0,
        3.4922893047332764,
        1.4199997186660767,
        1.0
      ],
      "name": "Cylinder.001_5"
    },
    {
      "mesh": 1,
      "name": "Object_6"
    },
    {
      "children": [
        8
      ],
      "matrix": [
        0.11841143667697906,
        0.0,
        0.0,
        0.0,
        0.0,
        0.0,
        0.25803104043006897,
        0.0,
        0.0,
        -0.11841143667697906,
        0.0,
        0.0,
        0.0,
        3.4922893047332764,
        1.4199997186660767,
        1.0
      ],
      "name": "Cylinder.002_6"
    },
    {
      "mesh": 2,
      "name": "Object_8"
    }
  ],
  "samplers": [
    {
      "magFilter": 9729,
      "minFilter": 9987,
      "wrapS": 10497,
      "wrapT": 10497
    }
  ],
  "scene": 0,
  "scenes": [
    {
      "name": "Sketchfab_Scene",
      "nodes": [
        0
      ]
    }
  ],
  "textures": [
    {
      "sampler": 0,
      "source": 0
    },
    {
      "sampler": 0,
      "source": 1
    },
    {
      "sampler": 0,
      "source": 2
    },
    {
      "sampler": 0,
      "source": 3
    }
  ]
}
