# File generated by ImageToStl.com - Free Image and 3D model conversion tools

mtllib dand-patta.mtl

o obj1
v -0.05320519 3.47510943 0.90303447
v -0.05320518 3.47510942 1.02960706
v -0.05320518 3.48723961 1.02960706
v 0.05478147 3.47510942 1.02960706
v 0.05478146 3.47510943 0.90303447
v 0.05478147 3.48723961 1.02960706
v 0.05478147 3.46297923 1.02960706
v 0.05478146 3.47510943 0.90303447
v 0.05478147 3.47510942 1.02960706
v -0.05320519 3.47510943 0.90303447
v -0.05320518 3.46297923 1.02960706
v -0.05320518 3.47510942 1.02960706
v -0.01720963 3.46297923 1.02960706
v -0.05320518 3.46297923 1.02960706
v -0.05320519 3.47510943 0.90303447
v -0.01720964 3.46297924 0.90303447
v -0.01720964 3.46297924 0.90303447
v -0.05320519 3.47510943 0.90303447
v -0.05320519 3.47510944 0.77646182
v -0.01720965 3.46297925 0.77646182
v -0.01720965 3.46297925 0.77646182
v -0.05320519 3.47510944 0.77646182
v -0.05320519 3.47510945 0.64988924
v -0.01720965 3.46297926 0.64988924
v -0.01720965 3.46297926 0.64988924
v -0.05320519 3.47510945 0.64988924
v -0.0532052 3.47510946 0.52331659
v -0.01720965 3.46297927 0.52331659
v -0.01720965 3.46297927 0.52331659
v -0.0532052 3.47510946 0.52331659
v -0.0532052 3.47510947 0.39674401
v -0.01720965 3.46297928 0.39674401
v -0.01720965 3.46297928 0.39674401
v -0.0532052 3.47510947 0.39674401
v -0.0532052 3.47510948 0.27017148
v -0.01720965 3.46297929 0.27017136
v -0.01720965 3.46297929 0.27017136
v -0.0532052 3.47510948 0.27017148
v -0.0532052 3.47510949 0.14359878
v -0.01720966 3.4629793 0.14359878
v -0.01720966 3.4629793 0.14359878
v -0.0532052 3.47510949 0.14359878
v -0.05320521 3.47510953 -0.37883056
v -0.01720966 3.46297934 -0.37883056
v -0.01720966 3.46297934 -0.37883056
v -0.05320521 3.47510953 -0.37883056
v -0.05320521 3.47510954 -0.50540339
v -0.01720967 3.46297935 -0.50540339
v -0.01720967 3.46297935 -0.50540339
v -0.05320521 3.47510954 -0.50540339
v -0.05320522 3.47510957 -0.92940921
v -0.01720967 3.46297938 -0.92940921
v -0.01720967 3.46297938 -0.92940921
v -0.05320522 3.47510957 -0.92940921
v -0.05320522 3.47510958 -1.05598167
v -0.01720968 3.46297939 -1.05598167
v -0.01720968 3.46297939 -1.05598167
v -0.05320522 3.47510958 -1.05598167
v -0.05320522 3.47510959 -1.18255462
v -0.01720968 3.4629794 -1.18255462
v -0.01720968 3.4629794 -1.18255462
v -0.05320522 3.47510959 -1.18255462
v -0.04986758 3.4751096 -1.30912708
v -0.01609713 3.46297941 -1.30912708
v -0.01609713 3.46297941 -1.30912708
v -0.04986758 3.4751096 -1.30912708
v -0.04497578 3.47510961 -1.43570004
v -0.01446653 3.46297942 -1.43570004
v -0.01446653 3.46297942 -1.43570004
v -0.04497578 3.47510961 -1.43570004
v -0.03228148 3.47510962 -1.5622725
v -0.0102351 3.46297943 -1.5622725
v 0.04655197 3.47510961 -1.43570004
v 0.01604272 3.46297942 -1.43570004
v 0.01181128 3.46297943 -1.5622725
v 0.03385767 3.47510962 -1.5622725
v 0.01604272 3.46297942 -1.43570004
v -0.01446653 3.46297942 -1.43570004
v -0.0102351 3.46297943 -1.5622725
v 0.01181128 3.46297943 -1.5622725
v 0.05144379 3.4751096 -1.30912708
v 0.01767333 3.46297941 -1.30912708
v 0.01604272 3.46297942 -1.43570004
v 0.04655197 3.47510961 -1.43570004
v 0.01767333 3.46297941 -1.30912708
v -0.01609713 3.46297941 -1.30912708
v -0.01446653 3.46297942 -1.43570004
v 0.01604272 3.46297942 -1.43570004
v 0.05478143 3.47510959 -1.18255462
v 0.01878587 3.4629794 -1.18255462
v 0.01767333 3.46297941 -1.30912708
v 0.05144379 3.4751096 -1.30912708
v 0.01878587 3.4629794 -1.18255462
v -0.01720968 3.4629794 -1.18255462
v -0.01609713 3.46297941 -1.30912708
v 0.01767333 3.46297941 -1.30912708
v 0.05478143 3.47510958 -1.05598216
v 0.01878587 3.46297939 -1.05598167
v 0.01878587 3.4629794 -1.18255462
v 0.05478143 3.47510959 -1.18255462
v 0.01878587 3.46297939 -1.05598167
v -0.01720968 3.46297939 -1.05598167
v -0.01720968 3.4629794 -1.18255462
v 0.01878587 3.4629794 -1.18255462
v 0.05478143 3.47510957 -0.92940921
v 0.01878588 3.46297938 -0.92940921
v 0.01878587 3.46297939 -1.05598167
v 0.05478143 3.47510958 -1.05598216
v 0.01878588 3.46297938 -0.92940921
v -0.01720967 3.46297938 -0.92940921
v -0.01720968 3.46297939 -1.05598167
v 0.01878587 3.46297939 -1.05598167
v 0.05478144 3.47510954 -0.50540339
v 0.01878589 3.46297935 -0.50540339
v 0.01878588 3.46297938 -0.92940921
v 0.05478143 3.47510957 -0.92940921
v 0.01878589 3.46297935 -0.50540339
v -0.01720967 3.46297935 -0.50540339
v -0.01720967 3.46297938 -0.92940921
v 0.01878588 3.46297938 -0.92940921
v 0.05478144 3.47510953 -0.37883081
v 0.01878588 3.46297934 -0.37883081
v 0.01878589 3.46297935 -0.50540339
v 0.05478144 3.47510954 -0.50540339
v 0.01878588 3.46297934 -0.37883081
v -0.01720966 3.46297934 -0.37883056
v -0.01720967 3.46297935 -0.50540339
v 0.01878589 3.46297935 -0.50540339
v 0.05478144 3.47510949 0.14359865
v 0.01878589 3.4629793 0.14359878
v 0.01878588 3.46297934 -0.37883081
v 0.05478144 3.47510953 -0.37883081
v 0.01878589 3.4629793 0.14359878
v -0.01720966 3.4629793 0.14359878
v -0.01720966 3.46297934 -0.37883056
v 0.01878588 3.46297934 -0.37883081
v 0.05478144 3.47510948 0.27017124
v 0.01878589 3.46297929 0.27017136
v 0.01878589 3.4629793 0.14359878
v 0.05478144 3.47510949 0.14359865
v 0.01878589 3.46297929 0.27017136
v -0.01720965 3.46297929 0.27017136
v -0.01720966 3.4629793 0.14359878
v 0.01878589 3.4629793 0.14359878
v 0.05478145 3.47510947 0.39674395
v 0.0187859 3.46297928 0.39674401
v 0.01878589 3.46297929 0.27017136
v 0.05478144 3.47510948 0.27017124
v 0.0187859 3.46297928 0.39674401
v -0.01720965 3.46297928 0.39674401
v -0.01720965 3.46297929 0.27017136
v 0.01878589 3.46297929 0.27017136
v 0.05478146 3.47510946 0.52331659
v 0.0187859 3.46297927 0.52331659
v 0.0187859 3.46297928 0.39674401
v 0.05478145 3.47510947 0.39674395
v 0.0187859 3.46297927 0.52331659
v -0.01720965 3.46297927 0.52331659
v -0.01720965 3.46297928 0.39674401
v 0.0187859 3.46297928 0.39674401
v 0.05478145 3.47510945 0.64988918
v 0.0187859 3.46297926 0.64988924
v 0.0187859 3.46297927 0.52331659
v 0.05478146 3.47510946 0.52331659
v 0.0187859 3.46297926 0.64988924
v -0.01720965 3.46297926 0.64988924
v -0.01720965 3.46297927 0.52331659
v 0.0187859 3.46297927 0.52331659
v 0.05478146 3.47510944 0.77646182
v 0.0187859 3.46297925 0.77646182
v 0.0187859 3.46297926 0.64988924
v 0.05478145 3.47510945 0.64988918
v 0.0187859 3.46297925 0.77646182
v -0.01720965 3.46297925 0.77646182
v -0.01720965 3.46297926 0.64988924
v 0.0187859 3.46297926 0.64988924
v 0.05478146 3.47510943 0.90303447
v 0.01878591 3.46297924 0.90303441
v 0.0187859 3.46297925 0.77646182
v 0.05478146 3.47510944 0.77646182
v 0.01878591 3.46297924 0.90303441
v -0.01720964 3.46297924 0.90303447
v -0.01720965 3.46297925 0.77646182
v 0.0187859 3.46297925 0.77646182
v 0.05478147 3.46297923 1.02960706
v 0.01878591 3.46297923 1.02960706
v 0.01878591 3.46297924 0.90303441
v 0.05478146 3.47510943 0.90303447
v 0.01878591 3.46297923 1.02960706
v -0.01720963 3.46297923 1.02960706
v -0.01720964 3.46297924 0.90303447
v 0.01878591 3.46297924 0.90303441
v -0.01720963 3.48723961 1.02960706
v -0.01720964 3.48723962 0.90303447
v -0.05320519 3.47510943 0.90303447
v -0.05320518 3.48723961 1.02960706
v -0.01720964 3.48723962 0.90303447
v -0.01720965 3.48723963 0.77646182
v -0.05320519 3.47510944 0.77646182
v -0.05320519 3.47510943 0.90303447
v -0.01720965 3.48723963 0.77646182
v -0.01720965 3.48723964 0.64988924
v -0.05320519 3.47510945 0.64988924
v -0.05320519 3.47510944 0.77646182
v -0.01720965 3.48723964 0.64988924
v -0.01720965 3.48723965 0.52331659
v -0.0532052 3.47510946 0.52331659
v -0.05320519 3.47510945 0.64988924
v -0.01720965 3.48723965 0.52331659
v -0.01720965 3.48723966 0.39674401
v -0.0532052 3.47510947 0.39674401
v -0.0532052 3.47510946 0.52331659
v -0.01720965 3.48723966 0.39674401
v -0.01720965 3.48723967 0.27017136
v -0.0532052 3.47510948 0.27017148
v -0.0532052 3.47510947 0.39674401
v -0.01720965 3.48723967 0.27017136
v -0.01720966 3.48723968 0.14359878
v -0.0532052 3.47510949 0.14359878
v -0.0532052 3.47510948 0.27017148
v -0.01720966 3.48723968 0.14359878
v -0.01720966 3.48723972 -0.37883056
v -0.05320521 3.47510953 -0.37883056
v -0.0532052 3.47510949 0.14359878
v -0.01720966 3.48723972 -0.37883056
v -0.01720967 3.48723973 -0.50540339
v -0.05320521 3.47510954 -0.50540339
v -0.05320521 3.47510953 -0.37883056
v -0.01720967 3.48723973 -0.50540339
v -0.01720967 3.48723976 -0.92940921
v -0.05320522 3.47510957 -0.92940921
v -0.05320521 3.47510954 -0.50540339
v -0.01720967 3.48723976 -0.92940921
v -0.01720968 3.48723977 -1.05598167
v -0.05320522 3.47510958 -1.05598167
v -0.05320522 3.47510957 -0.92940921
v -0.01720968 3.48723977 -1.05598167
v -0.01720968 3.48723978 -1.18255462
v -0.05320522 3.47510959 -1.18255462
v -0.05320522 3.47510958 -1.05598167
v -0.01720968 3.48723978 -1.18255462
v -0.01609713 3.48723979 -1.30912708
v -0.04986758 3.4751096 -1.30912708
v -0.05320522 3.47510959 -1.18255462
v -0.01609713 3.48723979 -1.30912708
v -0.01446653 3.4872398 -1.43570004
v -0.04497578 3.47510961 -1.43570004
v -0.04986758 3.4751096 -1.30912708
v -0.01446653 3.4872398 -1.43570004
v -0.0102351 3.48723981 -1.5622725
v -0.03228148 3.47510962 -1.5622725
v -0.04497578 3.47510961 -1.43570004
v 0.04655197 3.47510961 -1.43570004
v 0.03385767 3.47510962 -1.5622725
v 0.01181128 3.48723981 -1.5622725
v 0.01604272 3.4872398 -1.43570004
v 0.01604272 3.4872398 -1.43570004
v 0.01181128 3.48723981 -1.5622725
v -0.0102351 3.48723981 -1.5622725
v -0.01446653 3.4872398 -1.43570004
v 0.05144379 3.4751096 -1.30912708
v 0.04655197 3.47510961 -1.43570004
v 0.01604272 3.4872398 -1.43570004
v 0.01767333 3.48723979 -1.30912708
v 0.01767333 3.48723979 -1.30912708
v 0.01604272 3.4872398 -1.43570004
v -0.01446653 3.4872398 -1.43570004
v -0.01609713 3.48723979 -1.30912708
v 0.05478143 3.47510959 -1.18255462
v 0.05144379 3.4751096 -1.30912708
v 0.01767333 3.48723979 -1.30912708
v 0.01878587 3.48723978 -1.18255462
v 0.01878587 3.48723978 -1.18255462
v 0.01767333 3.48723979 -1.30912708
v -0.01609713 3.48723979 -1.30912708
v -0.01720968 3.48723978 -1.18255462
v 0.05478143 3.47510958 -1.05598216
v 0.05478143 3.47510959 -1.18255462
v 0.01878587 3.48723978 -1.18255462
v 0.01878587 3.48723977 -1.05598167
v 0.01878587 3.48723977 -1.05598167
v 0.01878587 3.48723978 -1.18255462
v -0.01720968 3.48723978 -1.18255462
v -0.01720968 3.48723977 -1.05598167
v 0.05478143 3.47510957 -0.92940921
v 0.05478143 3.47510958 -1.05598216
v 0.01878587 3.48723977 -1.05598167
v 0.01878588 3.48723976 -0.92940921
v 0.01878588 3.48723976 -0.92940921
v 0.01878587 3.48723977 -1.05598167
v -0.01720968 3.48723977 -1.05598167
v -0.01720967 3.48723976 -0.92940921
v 0.05478144 3.47510954 -0.50540339
v 0.05478143 3.47510957 -0.92940921
v 0.01878588 3.48723976 -0.92940921
v 0.01878589 3.48723973 -0.50540339
v 0.01878589 3.48723973 -0.50540339
v 0.01878588 3.48723976 -0.92940921
v -0.01720967 3.48723976 -0.92940921
v -0.01720967 3.48723973 -0.50540339
v 0.05478144 3.47510953 -0.37883081
v 0.05478144 3.47510954 -0.50540339
v 0.01878589 3.48723973 -0.50540339
v 0.01878588 3.48723972 -0.37883081
v 0.01878588 3.48723972 -0.37883081
v 0.01878589 3.48723973 -0.50540339
v -0.01720967 3.48723973 -0.50540339
v -0.01720966 3.48723972 -0.37883056
v 0.05478144 3.47510949 0.14359865
v 0.05478144 3.47510953 -0.37883081
v 0.01878588 3.48723972 -0.37883081
v 0.01878589 3.48723968 0.14359878
v 0.01878589 3.48723968 0.14359878
v 0.01878588 3.48723972 -0.37883081
v -0.01720966 3.48723972 -0.37883056
v -0.01720966 3.48723968 0.14359878
v 0.05478144 3.47510948 0.27017124
v 0.05478144 3.47510949 0.14359865
v 0.01878589 3.48723968 0.14359878
v 0.01878589 3.48723967 0.27017136
v 0.01878589 3.48723967 0.27017136
v 0.01878589 3.48723968 0.14359878
v -0.01720966 3.48723968 0.14359878
v -0.01720965 3.48723967 0.27017136
v 0.05478145 3.47510947 0.39674395
v 0.05478144 3.47510948 0.27017124
v 0.01878589 3.48723967 0.27017136
v 0.0187859 3.48723966 0.39674401
v 0.0187859 3.48723966 0.39674401
v 0.01878589 3.48723967 0.27017136
v -0.01720965 3.48723967 0.27017136
v -0.01720965 3.48723966 0.39674401
v 0.05478146 3.47510946 0.52331659
v 0.05478145 3.47510947 0.39674395
v 0.0187859 3.48723966 0.39674401
v 0.0187859 3.48723965 0.52331659
v 0.0187859 3.48723965 0.52331659
v 0.0187859 3.48723966 0.39674401
v -0.01720965 3.48723966 0.39674401
v -0.01720965 3.48723965 0.52331659
v 0.05478145 3.47510945 0.64988918
v 0.05478146 3.47510946 0.52331659
v 0.0187859 3.48723965 0.52331659
v 0.0187859 3.48723964 0.64988924
v 0.0187859 3.48723964 0.64988924
v 0.0187859 3.48723965 0.52331659
v -0.01720965 3.48723965 0.52331659
v -0.01720965 3.48723964 0.64988924
v 0.05478146 3.47510944 0.77646182
v 0.05478145 3.47510945 0.64988918
v 0.0187859 3.48723964 0.64988924
v 0.0187859 3.48723963 0.77646182
v 0.0187859 3.48723963 0.77646182
v 0.0187859 3.48723964 0.64988924
v -0.01720965 3.48723964 0.64988924
v -0.01720965 3.48723963 0.77646182
v 0.05478146 3.47510943 0.90303447
v 0.05478146 3.47510944 0.77646182
v 0.0187859 3.48723963 0.77646182
v 0.01878591 3.48723962 0.90303441
v 0.01878591 3.48723962 0.90303441
v 0.0187859 3.48723963 0.77646182
v -0.01720965 3.48723963 0.77646182
v -0.01720964 3.48723962 0.90303447
v 0.05478147 3.48723961 1.02960706
v 0.05478146 3.47510943 0.90303447
v 0.01878591 3.48723962 0.90303441
v 0.01878591 3.48723961 1.02960706
v 0.01878591 3.48723961 1.02960706
v 0.01878591 3.48723962 0.90303441
v -0.01720964 3.48723962 0.90303447
v -0.01720963 3.48723961 1.02960706
v -0.05320518 3.46297923 1.02960706
v -0.01720963 3.46297923 1.02960706
v -0.01720963 3.46297923 1.10426862
v -0.05320518 3.46297923 1.10426862
v 0.01878591 3.46297923 1.02960706
v 0.05478147 3.46297923 1.02960706
v 0.05478146 3.46297923 1.10426862
v 0.01878591 3.46297923 1.10426862
v -0.05320518 3.48723961 1.02960706
v -0.05320518 3.47510942 1.02960706
v -0.05320518 3.47510941 1.10426862
v -0.05320518 3.48723961 1.10426862
v 0.01878591 3.48723961 1.02960706
v -0.01720963 3.48723961 1.02960706
v -0.01720963 3.48723961 1.10426862
v 0.01878591 3.48723961 1.10426862
v -0.05320518 3.47510942 1.02960706
v -0.05320518 3.46297923 1.02960706
v -0.05320518 3.46297923 1.10426862
v -0.05320518 3.47510941 1.10426862
v -0.01720963 3.48723961 1.02960706
v -0.05320518 3.48723961 1.02960706
v -0.05320518 3.48723961 1.10426862
v -0.01720963 3.48723961 1.10426862
v -0.05320518 3.47510941 1.10426862
v -0.01720963 3.47510941 1.10426862
v -0.01720963 3.48723961 1.10426862
v -0.05320518 3.48723961 1.10426862
v -0.01720963 3.47510941 1.10426862
v 0.01878591 3.47510941 1.10426862
v 0.01878591 3.48723961 1.10426862
v -0.01720963 3.48723961 1.10426862
v 0.01878591 3.47510941 1.10426862
v 0.05478146 3.47510941 1.10426862
v 0.05478146 3.48723961 1.10426862
v 0.01878591 3.48723961 1.10426862
v 0.01878591 3.46297923 1.10426862
v 0.05478146 3.46297923 1.10426862
v 0.05478146 3.47510941 1.10426862
v 0.01878591 3.47510941 1.10426862
v -0.01720963 3.46297923 1.10426862
v 0.01878591 3.46297923 1.10426862
v 0.01878591 3.47510941 1.10426862
v -0.01720963 3.47510941 1.10426862
v -0.05320518 3.46297923 1.10426862
v -0.01720963 3.46297923 1.10426862
v -0.01720963 3.47510941 1.10426862
v -0.05320518 3.47510941 1.10426862
v 0.05478147 3.48723961 1.02960706
v 0.01878591 3.48723961 1.02960706
v 0.01878591 3.48723961 1.10426862
v 0.05478146 3.48723961 1.10426862
v 0.05478147 3.47510942 1.02960706
v 0.05478147 3.48723961 1.02960706
v 0.05478146 3.48723961 1.10426862
v 0.05478146 3.47510941 1.10426862
v -0.01720963 3.46297923 1.02960706
v 0.01878591 3.46297923 1.02960706
v 0.01878591 3.46297923 1.10426862
v -0.01720963 3.46297923 1.10426862
v 0.05478147 3.46297923 1.02960706
v 0.05478147 3.47510942 1.02960706
v 0.05478146 3.47510941 1.10426862
v 0.05478146 3.46297923 1.10426862
v 0.00078809 3.47510963 -1.68884496
v -0.0102351 3.46297943 -1.5622725
v -0.03228148 3.47510962 -1.5622725
v 0.01181128 3.46297943 -1.5622725
v 0.03385767 3.47510962 -1.5622725
v -0.0102351 3.48723981 -1.5622725
v 0.00078809 3.47510963 -1.68884496
v -0.03228148 3.47510962 -1.5622725
v 0.01181128 3.48723981 -1.5622725
v 0.03385767 3.47510962 -1.5622725
vn -1 0 -0
vn 1 0 -0
vn -0.16526 -0.10242 0.98092
vn -0.31935 0 0.94764
vn -0.32381 -0.00616 0.9461
vn -0.3239 -0.00632 0.94607
vn -0.32842 -0.01257 0.94445
vn -0.35301 -0.01981 0.93541
vn -0.41833 -0.06095 0.90625
vn 0.41833 -0.06095 0.90625
vn 0 0 1
vn 0.35301 -0.01981 0.93541
vn 0.32381 -0.00616 0.9461
vn 0.3239 -0.00632 0.94607
vn 0.32842 -0.01257 0.94445
vn 0.31935 0 0.94764
vn 0.16526 -0.10242 0.98092
vn -0.16526 -0.10242 -0.98092
vn -0.31935 0 -0.94764
vn -0.3239 -0.00632 -0.94607
vn -0.32381 -0.00616 -0.9461
vn -0.32842 -0.01257 -0.94445
vn -0.35301 -0.01981 -0.93541
vn -0.41833 -0.06095 -0.90625
vn 0.41833 -0.06095 -0.90625
vn 0 0 -1
vn 0.35301 -0.01981 -0.93541
vn 0.32381 -0.00616 -0.9461
vn 0.32842 -0.01257 -0.94445
vn 0.3239 -0.00632 -0.94607
vn 0.31932 0 -0.94765
vn 0.31935 0 -0.94764
vn 0.16526 -0.10242 -0.98092
vn 0 1 -0
vn 0 -0.26823 0.96336
vn 0 -0.26823 -0.96336
vt 0.54746 0.09191
vt 0.63536 0.09191
vt 0.63536 0.13436
vt 0.54646 0.13536
vt 0.63436 0.13536
vt 0.54646 0.09291
vt 0.86564 0.72827
vt 0.90809 0.81618
vt 0.90809 0.72827
vt 0.86464 0.72927
vt 0.90709 0.81718
vt 0.86464 0.81718
vt 0.77173 0.54445
vt 0.72827 0.54445
vt 0.72827 0.45555
vt 0.77173 0.45555
vt 0.63536 0.22827
vt 0.63536 0.27173
vt 0.54646 0.27173
vt 0.54646 0.22827
vt 0.77173 0.45354
vt 0.72827 0.45354
vt 0.72827 0.36464
vt 0.77173 0.36464
vt 0.72627 0.22827
vt 0.72627 0.27173
vt 0.63736 0.27173
vt 0.63736 0.22827
vt 0.77173 0.36264
vt 0.72827 0.36264
vt 0.72827 0.27373
vt 0.77173 0.27373
vt 0.08991 0.18282
vt 0.08991 0.22627
vt 0.001 0.22627
vt 0.001 0.18282
vt 0.81718 0.999
vt 0.77373 0.999
vt 0.77373 0.91009
vt 0.81718 0.91009
vt 0.36264 0.501
vt 0.36264 0.54445
vt 0.18282 0.54445
vt 0.18282 0.501
vt 0.81718 0.81718
vt 0.77373 0.81718
vt 0.77373 0.72827
vt 0.81718 0.72827
vt 0.18082 0.501
vt 0.18082 0.54445
vt 0.001 0.54445
vt 0.001 0.501
vt 0.81718 0.72627
vt 0.77373 0.72627
vt 0.77373 0.63736
vt 0.81718 0.63736
vt 0.27173 0.18282
vt 0.27173 0.22627
vt 0.18282 0.22627
vt 0.18282 0.18282
vt 0.81718 0.63536
vt 0.77373 0.63536
vt 0.77373 0.54646
vt 0.81718 0.54646
vt 0.36264 0.18282
vt 0.36264 0.22627
vt 0.27373 0.22627
vt 0.27373 0.18282
vt 0.81718 0.54445
vt 0.77373 0.54445
vt 0.77373 0.45555
vt 0.81718 0.45555
vt 0.45354 0.18282
vt 0.45354 0.22627
vt 0.36464 0.22627
vt 0.36464 0.18282
vt 0.81718 0.45354
vt 0.77373 0.45354
vt 0.77373 0.36464
vt 0.81718 0.36464
vt 0.54445 0.18282
vt 0.54445 0.22627
vt 0.45555 0.22627
vt 0.45555 0.18282
vt 0.81718 0.36264
vt 0.77373 0.36264
vt 0.77373 0.27373
vt 0.81718 0.27373
vt 0.63536 0.18282
vt 0.63536 0.22627
vt 0.54646 0.22627
vt 0.54646 0.18282
vt 0.77173 0.27173
vt 0.72827 0.27173
vt 0.72827 0.18282
vt 0.77173 0.18282
vt 0.72627 0.18282
vt 0.72627 0.22627
vt 0.63736 0.22627
vt 0.63736 0.18282
vt 0.81718 0.27173
vt 0.77373 0.27173
vt 0.77373 0.18282
vt 0.81718 0.18282
vt 0.08991 0.13736
vt 0.08991 0.18082
vt 0.001 0.18082
vt 0.001 0.13736
vt 0.86264 0.999
vt 0.81918 0.999
vt 0.81918 0.91009
vt 0.86264 0.91009
vt 0.36264 0.54646
vt 0.36264 0.58991
vt 0.18282 0.58991
vt 0.18282 0.54646
vt 0.499 0.999
vt 0.45555 0.999
vt 0.45555 0.81918
vt 0.499 0.81918
vt 0.27173 0.13736
vt 0.27173 0.18082
vt 0.18282 0.18082
vt 0.18282 0.13736
vt 0.86264 0.81718
vt 0.81918 0.81718
vt 0.81918 0.72827
vt 0.86264 0.72827
vt 0.18082 0.54646
vt 0.18082 0.58991
vt 0.001 0.58991
vt 0.001 0.54646
vt 0.45354 0.81718
vt 0.41009 0.81718
vt 0.41009 0.63736
vt 0.45354 0.63736
vt 0.45354 0.13736
vt 0.45354 0.18082
vt 0.36464 0.18082
vt 0.36464 0.13736
vt 0.86264 0.63536
vt 0.81918 0.63536
vt 0.81918 0.54646
vt 0.86264 0.54646
vt 0.54445 0.13736
vt 0.54445 0.18082
vt 0.45555 0.18082
vt 0.45555 0.13736
vt 0.86264 0.54445
vt 0.81918 0.54445
vt 0.81918 0.45555
vt 0.86264 0.45555
vt 0.63536 0.13736
vt 0.63536 0.18082
vt 0.54646 0.18082
vt 0.54646 0.13736
vt 0.86264 0.45354
vt 0.81918 0.45354
vt 0.81918 0.36464
vt 0.86264 0.36464
vt 0.72627 0.13736
vt 0.72627 0.18082
vt 0.63736 0.18082
vt 0.63736 0.13736
vt 0.86264 0.36264
vt 0.81918 0.36264
vt 0.81918 0.27373
vt 0.86264 0.27373
vt 0.81718 0.13736
vt 0.81718 0.18082
vt 0.72827 0.18082
vt 0.72827 0.13736
vt 0.86264 0.27173
vt 0.81918 0.27173
vt 0.81918 0.18282
vt 0.86264 0.18282
vt 0.08991 0.09191
vt 0.08991 0.13536
vt 0.001 0.13536
vt 0.001 0.09191
vt 0.90809 0.999
vt 0.86464 0.999
vt 0.86464 0.91009
vt 0.90809 0.91009
vt 0.18082 0.09191
vt 0.18082 0.13536
vt 0.09191 0.13536
vt 0.09191 0.09191
vt 0.90809 0.90809
vt 0.86464 0.90809
vt 0.86464 0.81918
vt 0.90809 0.81918
vt 0.18282 0.09191
vt 0.27173 0.09191
vt 0.27173 0.13536
vt 0.18282 0.13536
vt 0.90809 0.63736
vt 0.90809 0.72627
vt 0.86464 0.72627
vt 0.86464 0.63736
vt 0.27373 0.09191
vt 0.36264 0.09191
vt 0.36264 0.13536
vt 0.27373 0.13536
vt 0.90809 0.54646
vt 0.90809 0.63536
vt 0.86464 0.63536
vt 0.86464 0.54646
vt 0.36464 0.09191
vt 0.45354 0.09191
vt 0.45354 0.13536
vt 0.36464 0.13536
vt 0.90809 0.45555
vt 0.90809 0.54445
vt 0.86464 0.54445
vt 0.86464 0.45555
vt 0.45555 0.09191
vt 0.54445 0.09191
vt 0.54445 0.13536
vt 0.45555 0.13536
vt 0.45354 0.81918
vt 0.45354 0.999
vt 0.41009 0.999
vt 0.41009 0.81918
vt 0.63736 0.09191
vt 0.72627 0.09191
vt 0.72627 0.13536
vt 0.63736 0.13536
vt 0.499 0.54646
vt 0.499 0.72627
vt 0.45555 0.72627
vt 0.45555 0.54646
vt 0.72827 0.09191
vt 0.81718 0.09191
vt 0.81718 0.13536
vt 0.72827 0.13536
vt 0.90809 0.27373
vt 0.90809 0.36264
vt 0.86464 0.36264
vt 0.86464 0.27373
vt 0.81918 0.13736
vt 0.90809 0.13736
vt 0.90809 0.18082
vt 0.81918 0.18082
vt 0.90809 0.18282
vt 0.90809 0.27173
vt 0.86464 0.27173
vt 0.86464 0.18282
vt 0.81918 0.09191
vt 0.90809 0.09191
vt 0.90809 0.13536
vt 0.81918 0.13536
vt 0.95354 0.91009
vt 0.95354 0.999
vt 0.91009 0.999
vt 0.91009 0.91009
vt 0.001 0.04646
vt 0.08991 0.04646
vt 0.08991 0.08991
vt 0.001 0.08991
vt 0.95354 0.81918
vt 0.95354 0.90809
vt 0.91009 0.90809
vt 0.91009 0.81918
vt 0.09191 0.04646
vt 0.18082 0.04646
vt 0.18082 0.08991
vt 0.09191 0.08991
vt 0.77173 0.54646
vt 0.77173 0.63536
vt 0.72827 0.63536
vt 0.72827 0.54646
vt 0.36464 0.22827
vt 0.45354 0.22827
vt 0.45354 0.27173
vt 0.36464 0.27173
vt 0.77173 0.81918
vt 0.77173 0.90809
vt 0.72827 0.90809
vt 0.72827 0.81918
vt 0.54646 0.27373
vt 0.63536 0.27373
vt 0.63536 0.31718
vt 0.54646 0.31718
vt 0.90809 0.36464
vt 0.90809 0.45354
vt 0.86464 0.45354
vt 0.86464 0.36464
vt 0.36464 0.27373
vt 0.45354 0.27373
vt 0.45354 0.31718
vt 0.36464 0.31718
vt 0.54445 0.81918
vt 0.54445 0.999
vt 0.501 0.999
vt 0.501 0.81918
vt 0.001 0.45555
vt 0.18082 0.45555
vt 0.18082 0.499
vt 0.001 0.499
vt 0.72627 0.81918
vt 0.72627 0.90809
vt 0.68282 0.90809
vt 0.68282 0.81918
vt 0.36464 0.31918
vt 0.45354 0.31918
vt 0.45354 0.36264
vt 0.36464 0.36264
vt 0.63536 0.45555
vt 0.63536 0.63536
vt 0.59191 0.63536
vt 0.59191 0.45555
vt 0.001 0.36464
vt 0.18082 0.36464
vt 0.18082 0.40809
vt 0.001 0.40809
vt 0.68082 0.81918
vt 0.68082 0.90809
vt 0.63736 0.90809
vt 0.63736 0.81918
vt 0.45555 0.36464
vt 0.54445 0.36464
vt 0.54445 0.40809
vt 0.45555 0.40809
vt 0.63536 0.36464
vt 0.63536 0.45354
vt 0.59191 0.45354
vt 0.59191 0.36464
vt 0.27373 0.36464
vt 0.36264 0.36464
vt 0.36264 0.40809
vt 0.27373 0.40809
vt 0.72627 0.63736
vt 0.72627 0.72627
vt 0.68282 0.72627
vt 0.68282 0.63736
vt 0.09191 0.27373
vt 0.18082 0.27373
vt 0.18082 0.31718
vt 0.09191 0.31718
vt 0.72627 0.36464
vt 0.72627 0.45354
vt 0.68282 0.45354
vt 0.68282 0.36464
vt 0.45555 0.22827
vt 0.54445 0.22827
vt 0.54445 0.27173
vt 0.45555 0.27173
vt 0.81718 0.81918
vt 0.81718 0.90809
vt 0.77373 0.90809
vt 0.77373 0.81918
vt 0.09191 0.18282
vt 0.18082 0.18282
vt 0.18082 0.22627
vt 0.09191 0.22627
vt 0.86264 0.81918
vt 0.86264 0.90809
vt 0.81918 0.90809
vt 0.81918 0.81918
vt 0.09191 0.13736
vt 0.18082 0.13736
vt 0.18082 0.18082
vt 0.09191 0.18082
vt 0.86264 0.63736
vt 0.86264 0.72627
vt 0.81918 0.72627
vt 0.81918 0.63736
vt 0.27373 0.13736
vt 0.36264 0.13736
vt 0.36264 0.18082
vt 0.27373 0.18082
vt 0.81718 0.08991
vt 0.77373 0.08991
vt 0.77373 0.04646
vt 0.81718 0.04646
vt 0.95354 0.22627
vt 0.91009 0.22627
vt 0.91009 0.18282
vt 0.95354 0.18282
vt 0.86264 0.08991
vt 0.81918 0.08991
vt 0.81918 0.04646
vt 0.86264 0.04646
vt 0.95354 0.18082
vt 0.91009 0.18082
vt 0.91009 0.13736
vt 0.95354 0.13736
vt 0.95354 0.13536
vt 0.91009 0.13536
vt 0.91009 0.09191
vt 0.95354 0.09191
vt 0.90809 0.08991
vt 0.86464 0.08991
vt 0.86464 0.04646
vt 0.90809 0.04646
vt 0.95354 0.08991
vt 0.91009 0.08991
vt 0.91009 0.04646
vt 0.95354 0.04646
vt 0.999 0.999
vt 0.95555 0.999
vt 0.95555 0.95555
vt 0.999 0.95555
vt 0.04445 0.04445
vt 0.001 0.04445
vt 0.001 0.001
vt 0.04445 0.001
vt 0.08991 0.04445
vt 0.04646 0.04445
vt 0.04646 0.001
vt 0.08991 0.001
vt 0.999 0.95354
vt 0.95555 0.95354
vt 0.95555 0.91009
vt 0.999 0.91009
vt 0.999 0.90809
vt 0.95555 0.90809
vt 0.95555 0.86464
vt 0.999 0.86464
vt 0.13536 0.04445
vt 0.09191 0.04445
vt 0.09191 0.001
vt 0.13536 0.001
vt 0.999 0.86264
vt 0.95555 0.86264
vt 0.95555 0.81918
vt 0.999 0.81918
vt 0.18082 0.04445
vt 0.13736 0.04445
vt 0.13736 0.001
vt 0.18082 0.001
vt 0.22627 0.04445
vt 0.18282 0.04445
vt 0.18282 0.001
vt 0.22627 0.001
vt 0.54445 0.81718
vt 0.4826 0.75513
vt 0.45555 0.7743
vt 0.51223 0.73978
vt 0.54445 0.72827
vt 0.39169 0.60851
vt 0.45354 0.54646
vt 0.36464 0.58933
vt 0.42132 0.62385
vt 0.45354 0.63536
usemtl mat0
f 1/1/1 2/2/1 3/3/1
f 4/4/2 5/5/2 6/6/2
f 7/7/2 8/8/2 9/9/2
f 10/10/1 11/11/1 12/12/1
f 13/13/3 14/14/3 15/15/3
f 13/13/3 15/15/3 16/16/3
f 17/17/4 18/18/4 19/19/4
f 17/17/4 19/19/4 20/20/4
f 21/21/4 22/22/4 23/23/4
f 21/21/4 23/23/4 24/24/4
f 25/25/4 26/26/4 27/27/4
f 25/25/4 27/27/4 28/28/4
f 29/29/4 30/30/4 31/31/4
f 29/29/4 31/31/4 32/32/4
f 33/33/4 34/34/4 35/35/4
f 33/33/4 35/35/4 36/36/4
f 37/37/4 38/38/4 39/39/4
f 37/37/4 39/39/4 40/40/4
f 41/41/4 42/42/4 43/43/4
f 41/41/4 43/43/4 44/44/4
f 45/45/4 46/46/4 47/47/4
f 45/45/4 47/47/4 48/48/4
f 49/49/4 50/50/4 51/51/4
f 49/49/4 51/51/4 52/52/4
f 53/53/4 54/54/4 55/55/4
f 53/53/4 55/55/4 56/56/4
f 57/57/4 58/58/4 59/59/5
f 57/57/4 59/59/5 60/60/6
f 61/61/6 62/62/5 63/63/7
f 61/61/6 63/63/7 64/64/7
f 65/65/8 66/66/8 67/67/8
f 65/65/8 67/67/8 68/68/8
f 69/69/9 70/70/9 71/71/9
f 69/69/9 71/71/9 72/72/9
f 73/73/10 74/74/10 75/75/10
f 73/73/10 75/75/10 76/76/10
f 77/77/11 78/78/11 79/79/11
f 77/77/11 79/79/11 80/80/11
f 81/81/12 82/82/12 83/83/12
f 81/81/12 83/83/12 84/84/12
f 85/85/11 86/86/11 87/87/11
f 85/85/11 87/87/11 88/88/11
f 89/89/13 90/90/14 91/91/15
f 89/89/13 91/91/15 92/92/15
f 93/93/11 94/94/11 95/95/11
f 93/93/11 95/95/11 96/96/11
f 97/97/16 98/98/16 99/99/14
f 97/97/16 99/99/14 100/100/13
f 101/101/11 102/102/11 103/103/11
f 101/101/11 103/103/11 104/104/11
f 105/105/16 106/106/16 107/107/16
f 105/105/16 107/107/16 108/108/16
f 109/109/11 110/110/11 111/111/11
f 109/109/11 111/111/11 112/112/11
f 113/113/16 114/114/16 115/115/16
f 113/113/16 115/115/16 116/116/16
f 117/117/11 118/118/11 119/119/11
f 117/117/11 119/119/11 120/120/11
f 121/121/16 122/122/16 123/123/16
f 121/121/16 123/123/16 124/124/16
f 125/125/11 126/126/11 127/127/11
f 125/125/11 127/127/11 128/128/11
f 129/129/16 130/130/16 131/131/16
f 129/129/16 131/131/16 132/132/16
f 133/133/11 134/134/11 135/135/11
f 133/133/11 135/135/11 136/136/11
f 137/137/16 138/138/16 139/139/16
f 137/137/16 139/139/16 140/140/16
f 141/141/11 142/142/11 143/143/11
f 141/141/11 143/143/11 144/144/11
f 145/145/16 146/146/16 147/147/16
f 145/145/16 147/147/16 148/148/16
f 149/149/11 150/150/11 151/151/11
f 149/149/11 151/151/11 152/152/11
f 153/153/16 154/154/16 155/155/16
f 153/153/16 155/155/16 156/156/16
f 157/157/11 158/158/11 159/159/11
f 157/157/11 159/159/11 160/160/11
f 161/161/16 162/162/16 163/163/16
f 161/161/16 163/163/16 164/164/16
f 165/165/11 166/166/11 167/167/11
f 165/165/11 167/167/11 168/168/11
f 169/169/16 170/170/16 171/171/16
f 169/169/16 171/171/16 172/172/16
f 173/173/11 174/174/11 175/175/11
f 173/173/11 175/175/11 176/176/11
f 177/177/16 178/178/16 179/179/16
f 177/177/16 179/179/16 180/180/16
f 181/181/11 182/182/11 183/183/11
f 181/181/11 183/183/11 184/184/11
f 185/185/17 186/186/17 187/187/17
f 185/185/17 187/187/17 188/188/17
f 189/189/11 190/190/11 191/191/11
f 189/189/11 191/191/11 192/192/11
f 193/193/18 194/194/18 195/195/18
f 193/193/18 195/195/18 196/196/18
f 197/197/19 198/198/19 199/199/19
f 197/197/19 199/199/19 200/200/19
f 201/201/19 202/202/19 203/203/19
f 201/201/19 203/203/19 204/204/19
f 205/205/19 206/206/19 207/207/19
f 205/205/19 207/207/19 208/208/19
f 209/209/19 210/210/19 211/211/19
f 209/209/19 211/211/19 212/212/19
f 213/213/19 214/214/19 215/215/19
f 213/213/19 215/215/19 216/216/19
f 217/217/19 218/218/19 219/219/19
f 217/217/19 219/219/19 220/220/19
f 221/221/19 222/222/19 223/223/19
f 221/221/19 223/223/19 224/224/19
f 225/225/19 226/226/19 227/227/19
f 225/225/19 227/227/19 228/228/19
f 229/229/19 230/230/19 231/231/19
f 229/229/19 231/231/19 232/232/19
f 233/233/19 234/234/19 235/235/19
f 233/233/19 235/235/19 236/236/19
f 237/237/19 238/238/20 239/239/21
f 237/237/19 239/239/21 240/240/19
f 241/241/20 242/242/22 243/243/22
f 241/241/20 243/243/22 244/244/21
f 245/245/23 246/246/23 247/247/23
f 245/245/23 247/247/23 248/248/23
f 249/249/24 250/250/24 251/251/24
f 249/249/24 251/251/24 252/252/24
f 253/253/25 254/254/25 255/255/25
f 253/253/25 255/255/25 256/256/25
f 257/257/26 258/258/26 259/259/26
f 257/257/26 259/259/26 260/260/26
f 261/261/27 262/262/27 263/263/27
f 261/261/27 263/263/27 264/264/27
f 265/265/26 266/266/26 267/267/26
f 265/265/26 267/267/26 268/268/26
f 269/269/28 270/270/29 271/271/29
f 269/269/28 271/271/29 272/272/30
f 273/273/26 274/274/26 275/275/26
f 273/273/26 275/275/26 276/276/26
f 277/277/31 278/278/28 279/279/30
f 277/277/31 279/279/30 280/280/31
f 281/281/26 282/282/26 283/283/26
f 281/281/26 283/283/26 284/284/26
f 285/285/32 286/286/31 287/287/31
f 285/285/32 287/287/31 288/288/32
f 289/289/26 290/290/26 291/291/26
f 289/289/26 291/291/26 292/292/26
f 293/293/32 294/294/32 295/295/32
f 293/293/32 295/295/32 296/296/32
f 297/297/26 298/298/26 299/299/26
f 297/297/26 299/299/26 300/300/26
f 301/301/32 302/302/32 303/303/32
f 301/301/32 303/303/32 304/304/32
f 305/305/26 306/306/26 307/307/26
f 305/305/26 307/307/26 308/308/26
f 309/309/32 310/310/32 311/311/32
f 309/309/32 311/311/32 312/312/32
f 313/313/26 314/314/26 315/315/26
f 313/313/26 315/315/26 316/316/26
f 317/317/32 318/318/32 319/319/32
f 317/317/32 319/319/32 320/320/32
f 321/321/26 322/322/26 323/323/26
f 321/321/26 323/323/26 324/324/26
f 325/325/32 326/326/32 327/327/32
f 325/325/32 327/327/32 328/328/32
f 329/329/26 330/330/26 331/331/26
f 329/329/26 331/331/26 332/332/26
f 333/333/32 334/334/32 335/335/32
f 333/333/32 335/335/32 336/336/32
f 337/337/26 338/338/26 339/339/26
f 337/337/26 339/339/26 340/340/26
f 341/341/32 342/342/32 343/343/32
f 341/341/32 343/343/32 344/344/32
f 345/345/26 346/346/26 347/347/26
f 345/345/26 347/347/26 348/348/26
f 349/349/32 350/350/32 351/351/32
f 349/349/32 351/351/32 352/352/32
f 353/353/26 354/354/26 355/355/26
f 353/353/26 355/355/26 356/356/26
f 357/357/32 358/358/32 359/359/32
f 357/357/32 359/359/32 360/360/32
f 361/361/26 362/362/26 363/363/26
f 361/361/26 363/363/26 364/364/26
f 365/365/33 366/366/33 367/367/33
f 365/365/33 367/367/33 368/368/33
f 369/369/26 370/370/26 371/371/26
f 369/369/26 371/371/26 372/372/26
f 373/373/11 374/374/11 375/375/11
f 373/373/11 375/375/11 376/376/11
f 377/377/11 378/378/11 379/379/11
f 377/377/11 379/379/11 380/380/11
f 381/381/1 382/382/1 383/383/1
f 381/381/1 383/383/1 384/384/1
f 385/385/26 386/386/26 387/387/26
f 385/385/26 387/387/26 388/388/26
f 389/389/1 390/390/1 391/391/1
f 389/389/1 391/391/1 392/392/1
f 393/393/26 394/394/26 395/395/26
f 393/393/26 395/395/26 396/396/26
f 397/397/34 398/398/34 399/399/34
f 397/397/34 399/399/34 400/400/34
f 401/401/34 402/402/34 403/403/34
f 401/401/34 403/403/34 404/404/34
f 405/405/34 406/406/34 407/407/34
f 405/405/34 407/407/34 408/408/34
f 409/409/34 410/410/34 411/411/34
f 409/409/34 411/411/34 412/412/34
f 413/413/34 414/414/34 415/415/34
f 413/413/34 415/415/34 416/416/34
f 417/417/34 418/418/34 419/419/34
f 417/417/34 419/419/34 420/420/34
f 421/421/26 422/422/26 423/423/26
f 421/421/26 423/423/26 424/424/26
f 425/425/2 426/426/2 427/427/2
f 425/425/2 427/427/2 428/428/2
f 429/429/11 430/430/11 431/431/11
f 429/429/11 431/431/11 432/432/11
f 433/433/2 434/434/2 435/435/2
f 433/433/2 435/435/2 436/436/2
f 437/437/35 438/438/35 439/439/35
f 438/438/35 437/437/35 440/440/35
f 440/440/35 437/437/35 441/441/35
f 442/442/36 443/443/36 444/444/36
f 443/443/36 442/442/36 445/445/36
f 443/443/36 445/445/36 446/446/36
# Vertices: 446, normals: 36, texture coordinates: 446, faces: 222

o obj2
v 0.00020994 3.53048016 1.22509779
v 0.00020993 3.4885698 1.23343428
v 0.02984504 3.51820491 1.22509779
v 0.00020994 3.48856984 0.96822325
v 0.00020994 3.52517459 0.97550438
v 0.02609341 3.51445331 0.97550438
v 0.00020994 3.48856984 0.96822325
v 0.02609341 3.51445331 0.97550438
v 0.03681469 3.48856984 0.97550438
v 0.02984504 3.51820491 1.22509779
v 0.00020993 3.4885698 1.23343428
v 0.04212029 3.48856981 1.22509779
v 0.04212029 3.48856981 1.22509779
v 0.00020993 3.4885698 1.23343428
v 0.02984504 3.45893472 1.22509779
v 0.00020994 3.48856984 0.96822325
v 0.03681469 3.48856984 0.97550438
v 0.0260934 3.46268637 0.97550438
v 0.02984504 3.45893472 1.22509779
v 0.00020993 3.4885698 1.23343428
v 0.00020994 3.44665946 1.22509777
v 0.00020994 3.48856984 0.96822325
v 0.0260934 3.46268637 0.97550438
v 0.00020994 3.45196509 0.97550438
v 0.00020994 3.44665946 1.22509777
v 0.00020993 3.4885698 1.23343428
v -0.02942515 3.45893472 1.22509779
v 0.00020994 3.48856984 0.96822325
v 0.00020994 3.45196509 0.97550438
v -0.02567352 3.46268637 0.97550438
v -0.02942515 3.45893472 1.22509779
v 0.00020993 3.4885698 1.23343428
v -0.04170041 3.48856981 1.22509779
v 0.00020994 3.48856984 0.96822325
v -0.02567352 3.46268637 0.97550438
v -0.0363948 3.48856984 0.97550438
v -0.04170041 3.48856981 1.22509779
v 0.00020993 3.4885698 1.23343428
v -0.02942515 3.51820491 1.22509779
v 0.00020994 3.48856984 0.96822325
v -0.0363948 3.48856984 0.97550438
v -0.02567352 3.5144533 0.97550438
v -0.02942515 3.51820491 1.22509779
v 0.00020993 3.4885698 1.23343428
v 0.00020994 3.53048016 1.22509779
v 0.00020994 3.48856984 0.96822325
v -0.02567352 3.5144533 0.97550438
v 0.00020994 3.52517459 0.97550438
v 0.00020994 3.56463634 1.06838092
v 0.00020994 3.58422266 1.11597266
v 0.06784671 3.5562066 1.11597266
v 0.05399709 3.54235698 1.06838092
v 0.00020994 3.58831191 1.1525774
v 0.00020994 3.56601005 1.20135749
v 0.05496847 3.54332834 1.20135749
v 0.07073826 3.55909814 1.1525774
v 0.00020994 3.54740952 1.03344359
v 0.00020994 3.56463634 1.06838092
v 0.05399709 3.54235698 1.06838092
v 0.04181589 3.53017578 1.03344359
v 0.00020994 3.58422266 1.11597266
v 0.00020994 3.58831191 1.1525774
v 0.07073826 3.55909814 1.1525774
v 0.06784671 3.5562066 1.11597266
v 0.00020994 3.56601005 1.20135749
v 0.00020994 3.53048016 1.22509779
v 0.02984504 3.51820491 1.22509779
v 0.05496847 3.54332834 1.20135749
v 0.00020994 3.52517459 0.97550438
v 0.00020994 3.54740952 1.03344359
v 0.04181589 3.53017578 1.03344359
v 0.02609341 3.51445331 0.97550438
v 0.04181589 3.53017578 1.03344359
v 0.05399709 3.54235698 1.06838092
v 0.07627647 3.48856983 1.06838089
v 0.05904963 3.48856983 1.03344359
v 0.06784671 3.5562066 1.11597266
v 0.07073826 3.55909814 1.1525774
v 0.09995205 3.48856982 1.1525774
v 0.09586277 3.48856982 1.11597266
v 0.05496847 3.54332834 1.20135749
v 0.02984504 3.51820491 1.22509779
v 0.04212029 3.48856981 1.22509779
v 0.07765018 3.48856982 1.20135747
v 0.02609341 3.51445331 0.97550438
v 0.04181589 3.53017578 1.03344359
v 0.05904963 3.48856983 1.03344359
v 0.03681469 3.48856984 0.97550438
v 0.05399709 3.54235698 1.06838092
v 0.06784671 3.5562066 1.11597266
v 0.09586277 3.48856982 1.11597266
v 0.07627647 3.48856983 1.06838089
v 0.07073826 3.55909814 1.1525774
v 0.05496847 3.54332834 1.20135749
v 0.07765018 3.48856982 1.20135747
v 0.09995205 3.48856982 1.1525774
v 0.07765018 3.48856982 1.20135747
v 0.04212029 3.48856981 1.22509779
v 0.02984504 3.45893472 1.22509779
v 0.05496846 3.4338113 1.20135747
v 0.03681469 3.48856984 0.97550438
v 0.05904963 3.48856983 1.03344359
v 0.04181588 3.44696389 1.03344359
v 0.0260934 3.46268637 0.97550438
v 0.07627647 3.48856983 1.06838089
v 0.09586277 3.48856982 1.11597266
v 0.06784671 3.42093307 1.11597263
v 0.05399709 3.43478268 1.06838089
v 0.09995205 3.48856982 1.1525774
v 0.07765018 3.48856982 1.20135747
v 0.05496846 3.4338113 1.20135747
v 0.07073826 3.4180415 1.1525774
v 0.05904963 3.48856983 1.03344359
v 0.07627647 3.48856983 1.06838089
v 0.05399709 3.43478268 1.06838089
v 0.04181588 3.44696389 1.03344359
v 0.09586277 3.48856982 1.11597266
v 0.09995205 3.48856982 1.1525774
v 0.07073826 3.4180415 1.1525774
v 0.06784671 3.42093307 1.11597263
v 0.0260934 3.46268637 0.97550438
v 0.04181588 3.44696389 1.03344359
v 0.00020994 3.42973015 1.03344359
v 0.00020994 3.45196509 0.97550438
v 0.05399709 3.43478268 1.06838089
v 0.06784671 3.42093307 1.11597263
v 0.00020994 3.39291701 1.11597263
v 0.00020995 3.41250331 1.06838089
v 0.07073826 3.4180415 1.1525774
v 0.05496846 3.4338113 1.20135747
v 0.00020994 3.41112958 1.20135747
v 0.00020995 3.38882773 1.1525774
v 0.04181588 3.44696389 1.03344359
v 0.05399709 3.43478268 1.06838089
v 0.00020995 3.41250331 1.06838089
v 0.00020994 3.42973015 1.03344359
v 0.06784671 3.42093307 1.11597263
v 0.07073826 3.4180415 1.1525774
v 0.00020995 3.38882773 1.1525774
v 0.00020994 3.39291701 1.11597263
v 0.05496846 3.4338113 1.20135747
v 0.02984504 3.45893472 1.22509779
v 0.00020994 3.44665946 1.22509777
v 0.00020994 3.41112958 1.20135747
v 0.00020994 3.42973015 1.03344359
v 0.00020995 3.41250331 1.06838089
v -0.0535772 3.43478268 1.06838089
v -0.041396 3.44696389 1.03344359
v 0.00020994 3.39291701 1.11597263
v 0.00020995 3.38882773 1.1525774
v -0.07031836 3.4180415 1.1525774
v -0.06742681 3.42093308 1.11597263
v 0.00020994 3.41112958 1.20135747
v 0.00020994 3.44665946 1.22509777
v -0.02942515 3.45893472 1.22509779
v -0.05454857 3.4338113 1.20135747
v 0.00020994 3.45196509 0.97550438
v 0.00020994 3.42973015 1.03344359
v -0.041396 3.44696389 1.03344359
v -0.02567352 3.46268637 0.97550438
v 0.00020995 3.41250331 1.06838089
v 0.00020994 3.39291701 1.11597263
v -0.06742681 3.42093308 1.11597263
v -0.0535772 3.43478268 1.06838089
v 0.00020995 3.38882773 1.1525774
v 0.00020994 3.41112958 1.20135747
v -0.05454857 3.4338113 1.20135747
v -0.07031836 3.4180415 1.1525774
v -0.041396 3.44696389 1.03344359
v -0.0535772 3.43478268 1.06838089
v -0.07585657 3.48856983 1.06838089
v -0.05862974 3.48856983 1.03344359
v -0.06742681 3.42093308 1.11597263
v -0.07031836 3.4180415 1.1525774
v -0.09953216 3.48856982 1.1525774
v -0.09544287 3.48856983 1.11597266
v -0.05454857 3.4338113 1.20135747
v -0.02942515 3.45893472 1.22509779
v -0.04170041 3.48856981 1.22509779
v -0.07723029 3.48856982 1.20135747
v -0.02567352 3.46268637 0.97550438
v -0.041396 3.44696389 1.03344359
v -0.05862974 3.48856983 1.03344359
v -0.0363948 3.48856984 0.97550438
v -0.0535772 3.43478268 1.06838089
v -0.06742681 3.42093308 1.11597263
v -0.09544287 3.48856983 1.11597266
v -0.07585657 3.48856983 1.06838089
v -0.07031836 3.4180415 1.1525774
v -0.05454857 3.4338113 1.20135747
v -0.07723029 3.48856982 1.20135747
v -0.09953216 3.48856982 1.1525774
v -0.0363948 3.48856984 0.97550438
v -0.05862974 3.48856983 1.03344359
v -0.041396 3.53017578 1.03344359
v -0.02567352 3.5144533 0.97550438
v -0.07585657 3.48856983 1.06838089
v -0.09544287 3.48856983 1.11597266
v -0.06742681 3.55620658 1.11597266
v -0.0535772 3.54235697 1.06838092
v -0.09953216 3.48856982 1.1525774
v -0.07723029 3.48856982 1.20135747
v -0.05454857 3.54332833 1.20135749
v -0.07031837 3.55909812 1.1525774
v -0.05862974 3.48856983 1.03344359
v -0.07585657 3.48856983 1.06838089
v -0.0535772 3.54235697 1.06838092
v -0.041396 3.53017578 1.03344359
v -0.09544287 3.48856983 1.11597266
v -0.09953216 3.48856982 1.1525774
v -0.07031837 3.55909812 1.1525774
v -0.06742681 3.55620658 1.11597266
v -0.07723029 3.48856982 1.20135747
v -0.04170041 3.48856981 1.22509779
v -0.02942515 3.51820491 1.22509779
v -0.05454857 3.54332833 1.20135749
v -0.0535772 3.54235697 1.06838092
v -0.06742681 3.55620658 1.11597266
v 0.00020994 3.58422266 1.11597266
v 0.00020994 3.56463634 1.06838092
v -0.07031837 3.55909812 1.1525774
v -0.05454857 3.54332833 1.20135749
v 0.00020994 3.56601005 1.20135749
v 0.00020994 3.58831191 1.1525774
v -0.041396 3.53017578 1.03344359
v -0.0535772 3.54235697 1.06838092
v 0.00020994 3.56463634 1.06838092
v 0.00020994 3.54740952 1.03344359
v -0.06742681 3.55620658 1.11597266
v -0.07031837 3.55909812 1.1525774
v 0.00020994 3.58831191 1.1525774
v 0.00020994 3.58422266 1.11597266
v -0.05454857 3.54332833 1.20135749
v -0.02942515 3.51820491 1.22509779
v 0.00020994 3.53048016 1.22509779
v 0.00020994 3.56601005 1.20135749
v -0.02567352 3.5144533 0.97550438
v -0.041396 3.53017578 1.03344359
v 0.00020994 3.54740952 1.03344359
v 0.00020994 3.52517459 0.97550438
vn 0 0.97604 -0.21757
vn 0 1 -0
vn 0.15385 0.97604 -0.15385
vn 0 -1 -0
vn 0 -0.84665 -0.53215
vn 0.37627 -0.84666 -0.37627
vn 0.53215 -0.84665 -0
vn 0.21757 0.97604 -0
vn 0.15385 0.97604 0.15385
vn 0.37627 -0.84666 0.37627
vn 0 0.97604 0.21757
vn 0 -0.84665 0.53215
vn -0.15385 0.97604 0.15385
vn -0.37627 -0.84666 0.37627
vn -0.21757 0.97604 -0
vn -0.53215 -0.84665 -0
vn -0.15385 0.97604 -0.15385
vn -0.37627 -0.84666 -0.37627
vn 0 -0.69504 -0.71897
vn 0 -0.44317 -0.89644
vn 0.63388 -0.44317 -0.63388
vn 0.50839 -0.69504 -0.50839
vn 0 0.24244 -0.97017
vn 0 0.83008 -0.55764
vn 0.39431 0.83009 -0.39431
vn 0.68601 0.24244 -0.68601
vn 0 -0.69586 -0.71817
vn 0.50782 -0.69588 -0.50782
vn 0.71897 -0.69504 -0
vn 0.71817 -0.69586 -0
vn 0.97017 0.24244 -0
vn 0.89644 -0.44317 -0
vn 0.55764 0.83008 -0
vn 0.39431 0.83009 0.39431
vn 0.50782 -0.69588 0.50782
vn 0.63388 -0.44317 0.63388
vn 0.50839 -0.69504 0.50839
vn 0.68601 0.24244 0.68601
vn 0 -0.69586 0.71817
vn 0 -0.44317 0.89644
vn 0 -0.69504 0.71897
vn 0 0.83008 0.55764
vn 0 0.24244 0.97017
vn -0.50839 -0.69504 0.50839
vn -0.50782 -0.69588 0.50782
vn -0.68601 0.24244 0.68601
vn -0.63388 -0.44317 0.63388
vn -0.39431 0.83009 0.39431
vn -0.71897 -0.69504 -0
vn -0.71817 -0.69586 -0
vn -0.97017 0.24244 -0
vn -0.89644 -0.44317 -0
vn -0.55764 0.83008 -0
vn -0.50782 -0.69588 -0.50782
vn -0.63388 -0.44317 -0.63388
vn -0.50839 -0.69504 -0.50839
vn -0.39431 0.83009 -0.39431
vn -0.68601 0.24244 -0.68601
vt 0.999 0.16767
vt 0.999 0.33133
vt 0.91867 0.16767
vt 0.83534 0.001
vt 0.999 0.001
vt 0.999 0.08133
vt 0.998 0.08233
vt 0.83433 0.08233
vt 0.83433 0.002
vt 0.998 0.33233
vt 0.91767 0.16867
vt 0.91767 0.33233
vt 0.66567 0.08133
vt 0.502 0.001
vt 0.66567 0.001
vt 0.83534 0.08433
vt 0.999 0.16466
vt 0.999 0.08433
vt 0.83233 0.08133
vt 0.66867 0.001
vt 0.83233 0.001
vt 0.999 0.83133
vt 0.999 0.66767
vt 0.91867 0.66767
vt 0.91867 0.33433
vt 0.999 0.498
vt 0.999 0.33433
vt 0.998 0.16567
vt 0.83433 0.16567
vt 0.83433 0.08534
vt 0.91767 0.499
vt 0.91767 0.33534
vt 0.998 0.499
vt 0.999 0.66466
vt 0.999 0.501
vt 0.91867 0.501
vt 0.66767 0.08233
vt 0.83133 0.08233
vt 0.66767 0.002
vt 0.91767 0.502
vt 0.91767 0.66567
vt 0.998 0.66567
vt 0.501 0.08233
vt 0.66466 0.08233
vt 0.501 0.002
vt 0.91767 0.66867
vt 0.998 0.83233
vt 0.91767 0.83233
vt 0.999 0.999
vt 0.91767 0.999
vt 0.91767 0.83433
vt 0.999 0.83433
vt 0.83233 0.08433
vt 0.83233 0.16567
vt 0.66767 0.16567
vt 0.66767 0.08433
vt 0.91567 0.999
vt 0.83433 0.999
vt 0.83433 0.83433
vt 0.91567 0.83433
vt 0.16567 0.08433
vt 0.16567 0.16567
vt 0.001 0.16567
vt 0.001 0.08433
vt 0.16567 0.66567
vt 0.001 0.66567
vt 0.001 0.501
vt 0.16567 0.501
vt 0.499 0.999
vt 0.33433 0.999
vt 0.33433 0.83433
vt 0.499 0.83433
vt 0.749 0.33233
vt 0.66767 0.33233
vt 0.66767 0.16767
vt 0.749 0.16767
vt 0.33233 0.16767
vt 0.33233 0.249
vt 0.16767 0.249
vt 0.16767 0.16767
vt 0.499 0.66567
vt 0.33433 0.66567
vt 0.33433 0.501
vt 0.499 0.501
vt 0.16567 0.499
vt 0.001 0.499
vt 0.001 0.33433
vt 0.16567 0.33433
vt 0.83233 0.83233
vt 0.751 0.83233
vt 0.751 0.66767
vt 0.83233 0.66767
vt 0.66567 0.251
vt 0.66567 0.33233
vt 0.501 0.33233
vt 0.501 0.251
vt 0.66567 0.83233
vt 0.501 0.83233
vt 0.501 0.66767
vt 0.66567 0.66767
vt 0.499 0.499
vt 0.33433 0.499
vt 0.33433 0.33433
vt 0.499 0.33433
vt 0.749 0.83233
vt 0.66767 0.83233
vt 0.66767 0.66767
vt 0.749 0.66767
vt 0.499 0.001
vt 0.499 0.08233
vt 0.33433 0.08233
vt 0.33433 0.001
vt 0.749 0.999
vt 0.66767 0.999
vt 0.66767 0.83433
vt 0.749 0.83433
vt 0.16567 0.251
vt 0.16567 0.33233
vt 0.001 0.33233
vt 0.001 0.251
vt 0.66567 0.66567
vt 0.501 0.66567
vt 0.501 0.501
vt 0.66567 0.501
vt 0.749 0.66567
vt 0.66767 0.66567
vt 0.66767 0.501
vt 0.749 0.501
vt 0.33233 0.251
vt 0.33233 0.33233
vt 0.16767 0.33233
vt 0.16767 0.251
vt 0.749 0.499
vt 0.66767 0.499
vt 0.66767 0.33433
vt 0.749 0.33433
vt 0.499 0.251
vt 0.499 0.33233
vt 0.33433 0.33233
vt 0.33433 0.251
vt 0.33233 0.499
vt 0.16767 0.499
vt 0.16767 0.33433
vt 0.33233 0.33433
vt 0.83233 0.999
vt 0.751 0.999
vt 0.751 0.83433
vt 0.83233 0.83433
vt 0.16567 0.16767
vt 0.16567 0.249
vt 0.001 0.249
vt 0.001 0.16767
vt 0.66567 0.999
vt 0.501 0.999
vt 0.501 0.83433
vt 0.66567 0.83433
vt 0.33233 0.66567
vt 0.16767 0.66567
vt 0.16767 0.501
vt 0.33233 0.501
vt 0.83233 0.66567
vt 0.751 0.66567
vt 0.751 0.501
vt 0.83233 0.501
vt 0.499 0.16767
vt 0.499 0.249
vt 0.33433 0.249
vt 0.33433 0.16767
vt 0.83233 0.499
vt 0.751 0.499
vt 0.751 0.33433
vt 0.83233 0.33433
vt 0.66567 0.16767
vt 0.66567 0.249
vt 0.501 0.249
vt 0.501 0.16767
vt 0.499 0.83233
vt 0.33433 0.83233
vt 0.33433 0.66767
vt 0.499 0.66767
vt 0.33233 0.83233
vt 0.16767 0.83233
vt 0.16767 0.66767
vt 0.33233 0.66767
vt 0.83233 0.33233
vt 0.751 0.33233
vt 0.751 0.16767
vt 0.83233 0.16767
vt 0.33233 0.08433
vt 0.33233 0.16567
vt 0.16767 0.16567
vt 0.16767 0.08433
vt 0.33233 0.999
vt 0.16767 0.999
vt 0.16767 0.83433
vt 0.33233 0.83433
vt 0.91567 0.83233
vt 0.83433 0.83233
vt 0.83433 0.66767
vt 0.91567 0.66767
vt 0.499 0.08433
vt 0.499 0.16567
vt 0.33433 0.16567
vt 0.33433 0.08433
vt 0.91567 0.66567
vt 0.83433 0.66567
vt 0.83433 0.501
vt 0.91567 0.501
vt 0.66567 0.08433
vt 0.66567 0.16567
vt 0.501 0.16567
vt 0.501 0.08433
vt 0.16567 0.83233
vt 0.001 0.83233
vt 0.001 0.66767
vt 0.16567 0.66767
vt 0.91567 0.499
vt 0.83433 0.499
vt 0.83433 0.33433
vt 0.91567 0.33433
vt 0.16567 0.001
vt 0.16567 0.08233
vt 0.001 0.08233
vt 0.001 0.001
vt 0.91567 0.33233
vt 0.83433 0.33233
vt 0.83433 0.16767
vt 0.91567 0.16767
vt 0.33233 0.001
vt 0.33233 0.08233
vt 0.16767 0.08233
vt 0.16767 0.001
vt 0.66567 0.499
vt 0.501 0.499
vt 0.501 0.33433
vt 0.66567 0.33433
vt 0.16567 0.999
vt 0.001 0.999
vt 0.001 0.83433
vt 0.16567 0.83433
usemtl mat1
f 447/447/37 448/448/38 449/449/39
f 450/450/40 451/451/41 452/452/42
f 453/453/40 454/454/42 455/455/43
f 456/456/39 457/457/38 458/458/44
f 459/459/44 460/460/38 461/461/45
f 462/462/40 463/463/43 464/464/46
f 465/465/45 466/466/38 467/467/47
f 468/468/40 469/469/46 470/470/48
f 471/471/47 472/472/38 473/473/49
f 474/474/40 475/475/48 476/476/50
f 477/477/49 478/478/38 479/479/51
f 480/480/40 481/481/50 482/482/52
f 483/483/51 484/484/38 485/485/53
f 486/486/40 487/487/52 488/488/54
f 489/489/53 490/490/38 491/491/37
f 492/492/40 493/493/54 494/494/41
f 495/495/55 496/496/56 497/497/57
f 495/495/55 497/497/57 498/498/58
f 499/499/59 500/500/60 501/501/61
f 499/499/59 501/501/61 502/502/62
f 503/503/63 504/504/55 505/505/58
f 503/503/63 505/505/58 506/506/64
f 507/507/56 508/508/59 509/509/62
f 507/507/56 509/509/62 510/510/57
f 511/511/60 512/512/37 513/513/39
f 511/511/60 513/513/39 514/514/61
f 515/515/41 516/516/63 517/517/64
f 515/515/41 517/517/64 518/518/42
f 519/519/64 520/520/58 521/521/65
f 519/519/64 521/521/65 522/522/66
f 523/523/57 524/524/62 525/525/67
f 523/523/57 525/525/67 526/526/68
f 527/527/61 528/528/39 529/529/44
f 527/527/61 529/529/44 530/530/69
f 531/531/42 532/532/64 533/533/66
f 531/531/42 533/533/66 534/534/43
f 535/535/58 536/536/57 537/537/68
f 535/535/58 537/537/68 538/538/65
f 539/539/62 540/540/61 541/541/69
f 539/539/62 541/541/69 542/542/67
f 543/543/69 544/544/44 545/545/45
f 543/543/69 545/545/45 546/546/70
f 547/547/43 548/548/66 549/549/71
f 547/547/43 549/549/71 550/550/46
f 551/551/65 552/552/68 553/553/72
f 551/551/65 553/553/72 554/554/73
f 555/555/67 556/556/69 557/557/70
f 555/555/67 557/557/70 558/558/74
f 559/559/66 560/560/65 561/561/73
f 559/559/66 561/561/73 562/562/71
f 563/563/68 564/564/67 565/565/74
f 563/563/68 565/565/74 566/566/72
f 567/567/46 568/568/71 569/569/75
f 567/567/46 569/569/75 570/570/48
f 571/571/73 572/572/72 573/573/76
f 571/571/73 573/573/76 574/574/77
f 575/575/74 576/576/70 577/577/78
f 575/575/74 577/577/78 578/578/79
f 579/579/71 580/580/73 581/581/77
f 579/579/71 581/581/77 582/582/75
f 583/583/72 584/584/74 585/585/79
f 583/583/72 585/585/79 586/586/76
f 587/587/70 588/588/45 589/589/47
f 587/587/70 589/589/47 590/590/78
f 591/591/75 592/592/77 593/593/80
f 591/591/75 593/593/80 594/594/81
f 595/595/76 596/596/79 597/597/82
f 595/595/76 597/597/82 598/598/83
f 599/599/78 600/600/47 601/601/49
f 599/599/78 601/601/49 602/602/84
f 603/603/48 604/604/75 605/605/81
f 603/603/48 605/605/81 606/606/50
f 607/607/77 608/608/76 609/609/83
f 607/607/77 609/609/83 610/610/80
f 611/611/79 612/612/78 613/613/84
f 611/611/79 613/613/84 614/614/82
f 615/615/81 616/616/80 617/617/85
f 615/615/81 617/617/85 618/618/86
f 619/619/83 620/620/82 621/621/87
f 619/619/83 621/621/87 622/622/88
f 623/623/84 624/624/49 625/625/51
f 623/623/84 625/625/51 626/626/89
f 627/627/50 628/628/81 629/629/86
f 627/627/50 629/629/86 630/630/52
f 631/631/80 632/632/83 633/633/88
f 631/631/80 633/633/88 634/634/85
f 635/635/82 636/636/84 637/637/89
f 635/635/82 637/637/89 638/638/87
f 639/639/52 640/640/86 641/641/90
f 639/639/52 641/641/90 642/642/54
f 643/643/85 644/644/88 645/645/91
f 643/643/85 645/645/91 646/646/92
f 647/647/87 648/648/89 649/649/93
f 647/647/87 649/649/93 650/650/94
f 651/651/86 652/652/85 653/653/92
f 651/651/86 653/653/92 654/654/90
f 655/655/88 656/656/87 657/657/94
f 655/655/88 657/657/94 658/658/91
f 659/659/89 660/660/51 661/661/53
f 659/659/89 661/661/53 662/662/93
f 663/663/92 664/664/91 665/665/56
f 663/663/92 665/665/56 666/666/55
f 667/667/94 668/668/93 669/669/60
f 667/667/94 669/669/60 670/670/59
f 671/671/90 672/672/92 673/673/55
f 671/671/90 673/673/55 674/674/63
f 675/675/91 676/676/94 677/677/59
f 675/675/91 677/677/59 678/678/56
f 679/679/93 680/680/53 681/681/37
f 679/679/93 681/681/37 682/682/60
f 683/683/54 684/684/90 685/685/63
f 683/683/54 685/685/63 686/686/41
# Vertices: 240, normals: 58, texture coordinates: 240, faces: 112

o obj3
v -0 3.56221368 1.14178309
v 0 3.59132038 1.65784517
v 0.04951554 3.57805274 1.65784517
v 0.03496219 3.55284559 1.14178309
v 0.03496219 3.55284559 1.14178309
v 0.04951554 3.57805274 1.65784517
v 0.08576344 3.54180484 1.65784517
v 0.06055629 3.52725148 1.14178309
v 0.06055629 3.52725148 1.14178309
v 0.08576344 3.54180484 1.65784517
v 0.09903109 3.4922893 1.65784517
v 0.06992438 3.49228929 1.14178309
v 0.06992438 3.49228929 1.14178309
v 0.09903109 3.4922893 1.65784517
v 0.08576344 3.44277375 1.65784517
v 0.06055629 3.4573271 1.14178309
v 0.06055629 3.4573271 1.14178309
v 0.08576344 3.44277375 1.65784517
v 0.04951555 3.40652587 1.65784517
v 0.03496219 3.43173301 1.14178309
v 0.03496219 3.43173301 1.14178309
v 0.04951555 3.40652587 1.65784517
v 1E-08 3.39325822 1.65784517
v 1E-08 3.42236492 1.14178309
v 1E-08 3.42236492 1.14178309
v 1E-08 3.39325822 1.65784517
v -0.04951552 3.40652585 1.65784517
v -0.03496218 3.431733 1.14178309
v -0.03496218 3.431733 1.14178309
v -0.04951552 3.40652585 1.65784517
v -0.08576342 3.44277373 1.65784517
v -0.06055628 3.45732708 1.14178309
v -0.06055628 3.45732708 1.14178309
v -0.08576342 3.44277373 1.65784517
v -0.09903109 3.49228925 1.65784517
v -0.06992438 3.49228926 1.14178309
v -0.06992438 3.49228926 1.14178309
v -0.09903109 3.49228925 1.65784517
v -0.08576347 3.54180479 1.65784517
v -0.06055631 3.52725145 1.14178309
v -0.073685 3.49228927 1.65784517
v -0.06381307 3.45544678 1.65784517
v -0.06381305 3.45544678 1.37994146
v -0.07368498 3.49228927 1.37994146
v -0.06055631 3.52725145 1.14178309
v -0.08576347 3.54180479 1.65784517
v -0.0495156 3.57805271 1.65784517
v -0.03496224 3.55284557 1.14178309
v -0.03496224 3.55284557 1.14178309
v -0.0495156 3.57805271 1.65784517
v 0 3.59132038 1.65784517
v -0 3.56221368 1.14178309
v 0 3.56597429 1.65784517
v 0.0368425 3.55610238 1.65784517
v 0.04951554 3.57805274 1.65784517
v 0 3.59132038 1.65784517
v 0.0368425 3.55610238 1.65784517
v 0.06381308 3.52913179 1.65784517
v 0.08576344 3.54180484 1.65784517
v 0.04951554 3.57805274 1.65784517
v 0.06381308 3.52913179 1.65784517
v 0.073685 3.4922893 1.65784517
v 0.09903109 3.4922893 1.65784517
v 0.08576344 3.54180484 1.65784517
v 0.073685 3.4922893 1.65784517
v 0.06381308 3.4554468 1.65784517
v 0.08576344 3.44277375 1.65784517
v 0.09903109 3.4922893 1.65784517
v 0.06381308 3.4554468 1.65784517
v 0.03684251 3.42847622 1.65784517
v 0.04951555 3.40652587 1.65784517
v 0.08576344 3.44277375 1.65784517
v 0.03684251 3.42847622 1.65784517
v 1E-08 3.41860431 1.65784517
v 1E-08 3.39325822 1.65784517
v 0.04951555 3.40652587 1.65784517
v 1E-08 3.41860431 1.65784517
v -0.03684249 3.42847621 1.65784517
v -0.04951552 3.40652585 1.65784517
v 1E-08 3.39325822 1.65784517
v -0.03684249 3.42847621 1.65784517
v -0.06381307 3.45544678 1.65784517
v -0.08576342 3.44277373 1.65784517
v -0.04951552 3.40652585 1.65784517
v -0.06381307 3.45544678 1.65784517
v -0.073685 3.49228927 1.65784517
v -0.09903109 3.49228925 1.65784517
v -0.08576342 3.44277373 1.65784517
v -0.073685 3.49228927 1.65784517
v -0.0638131 3.52913177 1.65784517
v -0.08576347 3.54180479 1.65784517
v -0.09903109 3.49228925 1.65784517
v -0.0638131 3.52913177 1.65784517
v -0.03684255 3.55610236 1.65784517
v -0.0495156 3.57805271 1.65784517
v -0.08576347 3.54180479 1.65784517
v -0.03684255 3.55610236 1.65784517
v 0 3.56597429 1.65784517
v 0 3.59132038 1.65784517
v -0.0495156 3.57805271 1.65784517
v 1E-08 3.41860431 1.65784517
v 0.03684251 3.42847622 1.65784517
v 0.03684253 3.42847622 1.37994146
v 3E-08 3.41860431 1.37994146
v 0.073685 3.4922893 1.65784517
v 0.06381308 3.52913179 1.65784517
v 0.0638131 3.52913179 1.37994146
v 0.07368502 3.4922893 1.37994146
v -0.0638131 3.52913177 1.65784517
v -0.073685 3.49228927 1.65784517
v -0.07368498 3.49228927 1.37994146
v -0.06381308 3.52913177 1.37994146
v -0.03684249 3.42847621 1.65784517
v 1E-08 3.41860431 1.65784517
v 3E-08 3.41860431 1.37994146
v -0.03684246 3.42847621 1.37994146
v 0.06381308 3.4554468 1.65784517
v 0.073685 3.4922893 1.65784517
v 0.07368502 3.4922893 1.37994146
v 0.0638131 3.4554468 1.37994146
v -0.03684255 3.55610236 1.65784517
v -0.0638131 3.52913177 1.65784517
v -0.06381308 3.52913177 1.37994146
v -0.03684253 3.55610236 1.37994146
v 0.0368425 3.55610238 1.65784517
v 0 3.56597429 1.65784517
v 3E-08 3.56597429 1.37994146
v 0.03684252 3.55610238 1.37994146
v -0.06381307 3.45544678 1.65784517
v -0.03684249 3.42847621 1.65784517
v -0.03684246 3.42847621 1.37994146
v -0.06381305 3.45544678 1.37994146
v 0.03684251 3.42847622 1.65784517
v 0.06381308 3.4554468 1.65784517
v 0.0638131 3.4554468 1.37994146
v 0.03684253 3.42847622 1.37994146
v 0 3.56597429 1.65784517
v -0.03684255 3.55610236 1.65784517
v -0.03684253 3.55610236 1.37994146
v 3E-08 3.56597429 1.37994146
v 0.06381308 3.52913179 1.65784517
v 0.0368425 3.55610238 1.65784517
v 0.03684252 3.55610238 1.37994146
v 0.0638131 3.52913179 1.37994146
v 0.03496219 3.55284559 1.14178309
v -0.03496224 3.55284557 1.14178309
v -0 3.56221368 1.14178309
v 0.06055629 3.52725148 1.14178309
v -0.06055631 3.52725145 1.14178309
v 0.06992438 3.49228929 1.14178309
v -0.06992438 3.49228926 1.14178309
v 0.06055629 3.4573271 1.14178309
v -0.06055628 3.45732708 1.14178309
v 0.03496219 3.43173301 1.14178309
v -0.03496218 3.431733 1.14178309
v 1E-08 3.42236492 1.14178309
v -0.03684253 3.55610236 1.37994146
v 0.03684252 3.55610238 1.37994146
v 3E-08 3.56597429 1.37994146
v 0.0638131 3.52913179 1.37994146
v -0.06381308 3.52913177 1.37994146
v 0.07368502 3.4922893 1.37994146
v -0.07368498 3.49228927 1.37994146
v 0.0638131 3.4554468 1.37994146
v -0.06381305 3.45544678 1.37994146
v 0.03684253 3.42847622 1.37994146
v -0.03684246 3.42847621 1.37994146
v 3E-08 3.41860431 1.37994146
vn 0 -0.69794 -0.71616
vn 0 0.60694 -0.79475
vn 0.39736 0.60694 -0.68828
vn 0.35808 -0.69794 -0.62021
vn 0.68828 0.60694 -0.39736
vn 0.62021 -0.69794 -0.35808
vn 0.79475 0.60694 -0
vn 0.71616 -0.69794 -0
vn 0.68828 0.60694 0.39736
vn 0.62021 -0.69794 0.35808
vn 0.39736 0.60694 0.68828
vn 0.35808 -0.69794 0.62021
vn 0 0.60694 0.79475
vn 0 -0.69794 0.71616
vn -0.39736 0.60694 0.68828
vn -0.35808 -0.69794 0.62021
vn -0.68828 0.60694 0.39736
vn -0.62021 -0.69794 0.35808
vn -0.79475 0.60694 -0
vn -0.71616 -0.69794 -0
vn -0.68828 0.60694 -0.39736
vn -0.62021 -0.69794 -0.35808
vn 0.63772 0.77027 -0
vn 0.55227 0.77027 -0.31886
vn 0.65573 0.65323 -0.37856
vn 0.75715 0.65324 -0
vn -0.39736 0.60694 -0.68828
vn -0.35808 -0.69794 -0.62021
vn 0 0.77027 0.63772
vn -0.31886 0.77027 0.55227
vn -0.55227 0.77027 0.31886
vn -0.63772 0.77027 -0
vn -0.55227 0.77027 -0.31886
vn -0.31886 0.77027 -0.55227
vn 0 0.77027 -0.63772
vn 0.31886 0.77027 -0.55227
vn 0.55227 0.77027 0.31886
vn 0.31886 0.77027 0.55227
vn -0.37856 0.65323 -0.65573
vn 0 0.65324 -0.75715
vn -0.65573 0.65323 0.37856
vn -0.75715 0.65324 -0
vn 0.65573 0.65323 0.37856
vn 0.37856 0.65323 -0.65573
vn -0.65573 0.65323 -0.37856
vn 0.37856 0.65323 0.65573
vn 0 0.65324 0.75715
vn -0.37856 0.65323 0.65573
vt 0.88789 0.77878
vt 0.88789 0.999
vt 0.77878 0.999
vt 0.77878 0.77878
vt 0.22322 0.33433
vt 0.44344 0.33433
vt 0.44344 0.44344
vt 0.22322 0.44344
vt 0.33233 0.77878
vt 0.33233 0.999
vt 0.22322 0.999
vt 0.22322 0.77878
vt 0.22322 0.66767
vt 0.44344 0.66767
vt 0.44344 0.77678
vt 0.22322 0.77678
vt 0.44344 0.77878
vt 0.44344 0.999
vt 0.33433 0.999
vt 0.33433 0.77878
vt 0.22322 0.55656
vt 0.44344 0.55656
vt 0.44344 0.66567
vt 0.22322 0.66567
vt 0.55455 0.77878
vt 0.55455 0.999
vt 0.44545 0.999
vt 0.44545 0.77878
vt 0.001 0.44545
vt 0.22122 0.44545
vt 0.22122 0.55455
vt 0.001 0.55455
vt 0.55455 0.55656
vt 0.55455 0.77678
vt 0.44545 0.77678
vt 0.44545 0.55656
vt 0.22322 0.44545
vt 0.44344 0.44545
vt 0.44344 0.55455
vt 0.22322 0.55455
vt 0.66567 0.999
vt 0.55656 0.999
vt 0.55656 0.77878
vt 0.66567 0.77878
vt 0.001 0.33433
vt 0.22122 0.33433
vt 0.22122 0.44344
vt 0.001 0.44344
vt 0.66567 0.55656
vt 0.66567 0.77678
vt 0.55656 0.77678
vt 0.55656 0.55656
vt 0.22122 0.11011
vt 0.11211 0.11011
vt 0.11211 0.001
vt 0.22122 0.001
vt 0.11011 0.11011
vt 0.001 0.11011
vt 0.001 0.001
vt 0.11011 0.001
vt 0.999 0.999
vt 0.88989 0.999
vt 0.88989 0.88989
vt 0.999 0.88989
vt 0.88789 0.22122
vt 0.77878 0.22122
vt 0.77878 0.11211
vt 0.88789 0.11211
vt 0.77678 0.22122
vt 0.66767 0.22122
vt 0.66767 0.11211
vt 0.77678 0.11211
vt 0.999 0.88789
vt 0.88989 0.88789
vt 0.88989 0.77878
vt 0.999 0.77878
vt 0.88789 0.33233
vt 0.77878 0.33233
vt 0.77878 0.22322
vt 0.88789 0.22322
vt 0.88789 0.44344
vt 0.77878 0.44344
vt 0.77878 0.33433
vt 0.88789 0.33433
vt 0.88789 0.55455
vt 0.77878 0.55455
vt 0.77878 0.44545
vt 0.88789 0.44545
vt 0.88789 0.66567
vt 0.77878 0.66567
vt 0.77878 0.55656
vt 0.88789 0.55656
vt 0.88789 0.77678
vt 0.77878 0.77678
vt 0.77878 0.66767
vt 0.88789 0.66767
vt 0.77678 0.33233
vt 0.66767 0.33233
vt 0.66767 0.22322
vt 0.77678 0.22322
vt 0.66567 0.11211
vt 0.66567 0.22122
vt 0.44545 0.22122
vt 0.44545 0.11211
vt 0.77678 0.55455
vt 0.66767 0.55455
vt 0.66767 0.33433
vt 0.77678 0.33433
vt 0.44344 0.11211
vt 0.44344 0.22122
vt 0.22322 0.22122
vt 0.22322 0.11211
vt 0.77678 0.77678
vt 0.66767 0.77678
vt 0.66767 0.55656
vt 0.77678 0.55656
vt 0.22122 0.11211
vt 0.22122 0.22122
vt 0.001 0.22122
vt 0.001 0.11211
vt 0.77678 0.999
vt 0.66767 0.999
vt 0.66767 0.77878
vt 0.77678 0.77878
vt 0.44344 0.22322
vt 0.44344 0.33233
vt 0.22322 0.33233
vt 0.22322 0.22322
vt 0.66567 0.55455
vt 0.55656 0.55455
vt 0.55656 0.33433
vt 0.66567 0.33433
vt 0.22122 0.22322
vt 0.22122 0.33233
vt 0.001 0.33233
vt 0.001 0.22322
vt 0.55455 0.55455
vt 0.44545 0.55455
vt 0.44545 0.33433
vt 0.55455 0.33433
vt 0.66567 0.22322
vt 0.66567 0.33233
vt 0.44545 0.33233
vt 0.44545 0.22322
vt 0.0305 0.9695
vt 0.001 0.85938
vt 0.001 0.91839
vt 0.08161 0.999
vt 0.0305 0.80828
vt 0.14062 0.999
vt 0.08161 0.77878
vt 0.19172 0.9695
vt 0.14062 0.77878
vt 0.22122 0.91839
vt 0.19172 0.80828
vt 0.22122 0.85939
vt 0.0305 0.74727
vt 0.001 0.63716
vt 0.001 0.69617
vt 0.0305 0.58606
vt 0.08161 0.77678
vt 0.08161 0.55656
vt 0.14062 0.77678
vt 0.14062 0.55656
vt 0.19172 0.74727
vt 0.19172 0.58606
vt 0.22122 0.69617
vt 0.22122 0.63716
usemtl mat2
f 687/687/95 688/688/96 689/689/97
f 687/687/95 689/689/97 690/690/98
f 691/691/98 692/692/97 693/693/99
f 691/691/98 693/693/99 694/694/100
f 695/695/100 696/696/99 697/697/101
f 695/695/100 697/697/101 698/698/102
f 699/699/102 700/700/101 701/701/103
f 699/699/102 701/701/103 702/702/104
f 703/703/104 704/704/103 705/705/105
f 703/703/104 705/705/105 706/706/106
f 707/707/106 708/708/105 709/709/107
f 707/707/106 709/709/107 710/710/108
f 711/711/108 712/712/107 713/713/109
f 711/711/108 713/713/109 714/714/110
f 715/715/110 716/716/109 717/717/111
f 715/715/110 717/717/111 718/718/112
f 719/719/112 720/720/111 721/721/113
f 719/719/112 721/721/113 722/722/114
f 723/723/114 724/724/113 725/725/115
f 723/723/114 725/725/115 726/726/116
f 727/727/117 728/728/118 729/729/119
f 727/727/117 729/729/119 730/730/120
f 731/731/116 732/732/115 733/733/121
f 731/731/116 733/733/121 734/734/122
f 735/735/122 736/736/121 737/737/96
f 735/735/122 737/737/96 738/738/95
f 739/739/123 740/740/124 741/741/97
f 739/739/123 741/741/97 742/742/96
f 743/743/124 744/744/125 745/745/99
f 743/743/124 745/745/99 746/746/97
f 747/747/125 748/748/126 749/749/101
f 747/747/125 749/749/101 750/750/99
f 751/751/126 752/752/127 753/753/103
f 751/751/126 753/753/103 754/754/101
f 755/755/127 756/756/128 757/757/105
f 755/755/127 757/757/105 758/758/103
f 759/759/128 760/760/129 761/761/107
f 759/759/128 761/761/107 762/762/105
f 763/763/129 764/764/130 765/765/109
f 763/763/129 765/765/109 766/766/107
f 767/767/130 768/768/118 769/769/111
f 767/767/130 769/769/111 770/770/109
f 771/771/118 772/772/117 773/773/113
f 771/771/118 773/773/113 774/774/111
f 775/775/117 776/776/131 777/777/115
f 775/775/117 777/777/115 778/778/113
f 779/779/131 780/780/132 781/781/121
f 779/779/131 781/781/121 782/782/115
f 783/783/132 784/784/123 785/785/96
f 783/783/132 785/785/96 786/786/121
f 787/787/129 788/788/128 789/789/133
f 787/787/129 789/789/133 790/790/134
f 791/791/126 792/792/125 793/793/135
f 791/791/126 793/793/135 794/794/136
f 795/795/131 796/796/117 797/797/120
f 795/795/131 797/797/120 798/798/137
f 799/799/130 800/800/129 801/801/134
f 799/799/130 801/801/134 802/802/138
f 803/803/127 804/804/126 805/805/136
f 803/803/127 805/805/136 806/806/139
f 807/807/132 808/808/131 809/809/137
f 807/807/132 809/809/137 810/810/140
f 811/811/124 812/812/123 813/813/141
f 811/811/124 813/813/141 814/814/142
f 815/815/118 816/816/130 817/817/138
f 815/815/118 817/817/138 818/818/119
f 819/819/128 820/820/127 821/821/139
f 819/819/128 821/821/139 822/822/133
f 823/823/123 824/824/132 825/825/140
f 823/823/123 825/825/140 826/826/141
f 827/827/125 828/828/124 829/829/142
f 827/827/125 829/829/142 830/830/135
f 831/831/98 832/832/122 833/833/95
f 832/832/122 831/831/98 834/834/100
f 832/832/122 834/834/100 835/835/116
f 835/835/116 834/834/100 836/836/102
f 835/835/116 836/836/102 837/837/114
f 837/837/114 836/836/102 838/838/104
f 837/837/114 838/838/104 839/839/112
f 839/839/112 838/838/104 840/840/106
f 839/839/112 840/840/106 841/841/110
f 841/841/110 840/840/106 842/842/108
f 843/843/140 844/844/142 845/845/141
f 844/844/142 843/843/140 846/846/135
f 846/846/135 843/843/140 847/847/137
f 846/846/135 847/847/137 848/848/136
f 848/848/136 847/847/137 849/849/120
f 848/848/136 849/849/120 850/850/139
f 850/850/139 849/849/120 851/851/119
f 850/850/139 851/851/119 852/852/133
f 852/852/133 851/851/119 853/853/138
f 852/852/133 853/853/138 854/854/134
# Vertices: 168, normals: 48, texture coordinates: 168, faces: 92

